<svg width="200" height="127" viewBox="0 0 200 127" fill="none" xmlns="http://www.w3.org/2000/svg">
<rect x="0.5" y="0.5" width="199" height="126" rx="9.5" fill="#252B32" stroke="#3B444F"/>
<rect x="56" y="50" width="87" height="27" rx="6" fill="#677689"/>
<path d="M81.8281 68H84.6523C85.2539 68 85.7695 67.9043 86.1992 67.7129C86.6289 67.5215 86.959 67.248 87.1895 66.8926C87.4238 66.5332 87.541 66.1074 87.541 65.6152V65.6035C87.541 65.2363 87.4609 64.9082 87.3008 64.6191C87.1406 64.3262 86.918 64.0879 86.6328 63.9043C86.3477 63.7207 86.0137 63.6094 85.6309 63.5703V63.4707C85.9121 63.4238 86.1641 63.3125 86.3867 63.1367C86.6094 62.9609 86.7871 62.7461 86.9199 62.4922C87.0527 62.2344 87.1191 61.957 87.1191 61.6602V61.6484C87.1191 61.2188 87.0176 60.8477 86.8145 60.5352C86.6113 60.2188 86.3184 59.9746 85.9355 59.8027C85.5566 59.6309 85.1035 59.5449 84.5762 59.5449H81.8281V60.6172H84.2656C84.7539 60.6172 85.1328 60.7285 85.4023 60.9512C85.6719 61.1699 85.8066 61.4785 85.8066 61.877V61.8887C85.8066 62.2988 85.6582 62.6113 85.3613 62.8262C85.0645 63.0371 84.625 63.1426 84.043 63.1426H81.8281V64.1445H84.3066C84.7207 64.1445 85.0664 64.1973 85.3438 64.3027C85.625 64.4043 85.8359 64.5566 85.9766 64.7598C86.1172 64.9629 86.1875 65.2168 86.1875 65.5215V65.5332C86.1875 65.9863 86.0352 66.332 85.7305 66.5703C85.4258 66.8086 84.9766 66.9277 84.3828 66.9277H81.8281V68ZM81.1719 68H82.4844V59.5449H81.1719V68ZM91.1973 68.123C91.5059 68.123 91.7812 68.0801 92.0234 67.9941C92.2695 67.9082 92.4805 67.7852 92.6562 67.625C92.832 67.4609 92.9707 67.2656 93.0723 67.0391H93.166V68H94.4434V61.6367H93.166V65.3691C93.166 65.627 93.1328 65.8574 93.0664 66.0605C93.0039 66.2637 92.9062 66.4375 92.7734 66.582C92.6406 66.7266 92.4766 66.8379 92.2812 66.916C92.0859 66.9902 91.8633 67.0273 91.6133 67.0273C91.1445 67.0273 90.8066 66.8965 90.5996 66.6348C90.3926 66.373 90.2891 65.9805 90.2891 65.457V61.6367H89.0176V65.7559C89.0176 66.2559 89.0977 66.6836 89.2578 67.0391C89.4219 67.3906 89.666 67.6602 89.9902 67.8477C90.3184 68.0312 90.7207 68.123 91.1973 68.123ZM98.6738 68.041C98.7988 68.041 98.9199 68.0332 99.0371 68.0176C99.1543 68.0059 99.2637 67.9922 99.3652 67.9766V66.957C99.2754 66.9648 99.1953 66.9707 99.125 66.9746C99.0586 66.9785 98.9785 66.9805 98.8848 66.9805C98.5684 66.9805 98.3418 66.9062 98.2051 66.7578C98.0684 66.6055 98 66.3574 98 66.0137V62.6387H99.3652V61.6367H98V60.0312H96.6992V61.6367H95.7031V62.6387H96.6992V66.3242C96.6992 66.9336 96.8535 67.373 97.1621 67.6426C97.4746 67.9082 97.9785 68.041 98.6738 68.041ZM103.279 68.041C103.404 68.041 103.525 68.0332 103.643 68.0176C103.76 68.0059 103.869 67.9922 103.971 67.9766V66.957C103.881 66.9648 103.801 66.9707 103.73 66.9746C103.664 66.9785 103.584 66.9805 103.49 66.9805C103.174 66.9805 102.947 66.9062 102.811 66.7578C102.674 66.6055 102.605 66.3574 102.605 66.0137V62.6387H103.971V61.6367H102.605V60.0312H101.305V61.6367H100.309V62.6387H101.305V66.3242C101.305 66.9336 101.459 67.373 101.768 67.6426C102.08 67.9082 102.584 68.041 103.279 68.041ZM108.084 68.123C108.709 68.123 109.244 67.9902 109.689 67.7246C110.139 67.459 110.484 67.0801 110.727 66.5879C110.973 66.0918 111.096 65.5039 111.096 64.8242V64.8125C111.096 64.1289 110.973 63.541 110.727 63.0488C110.484 62.5527 110.139 62.1738 109.689 61.9121C109.24 61.6465 108.705 61.5137 108.084 61.5137C107.467 61.5137 106.932 61.6465 106.479 61.9121C106.029 62.1777 105.682 62.5566 105.436 63.0488C105.193 63.541 105.072 64.1289 105.072 64.8125V64.8242C105.072 65.5039 105.193 66.0918 105.436 66.5879C105.678 67.0801 106.023 67.459 106.473 67.7246C106.926 67.9902 107.463 68.123 108.084 68.123ZM108.084 67.0566C107.721 67.0566 107.412 66.9688 107.158 66.793C106.904 66.6133 106.709 66.3574 106.572 66.0254C106.439 65.6934 106.373 65.293 106.373 64.8242V64.8125C106.373 64.3398 106.439 63.9375 106.572 63.6055C106.709 63.2734 106.904 63.0195 107.158 62.8438C107.412 62.6641 107.721 62.5742 108.084 62.5742C108.447 62.5742 108.756 62.6641 109.01 62.8438C109.264 63.0195 109.457 63.2734 109.59 63.6055C109.723 63.9375 109.789 64.3398 109.789 64.8125V64.8242C109.789 65.293 109.723 65.6934 109.59 66.0254C109.457 66.3574 109.264 66.6133 109.01 66.793C108.756 66.9688 108.447 67.0566 108.084 67.0566ZM112.607 68H113.879V64.2676C113.879 63.9238 113.939 63.6289 114.061 63.3828C114.186 63.1328 114.361 62.9414 114.588 62.8086C114.814 62.6719 115.082 62.6035 115.391 62.6035C115.859 62.6035 116.203 62.7344 116.422 62.9961C116.645 63.2539 116.756 63.6484 116.756 64.1797V68H118.033V63.8809C118.033 63.123 117.844 62.5391 117.465 62.1289C117.086 61.7188 116.539 61.5137 115.824 61.5137C115.359 61.5137 114.975 61.6094 114.67 61.8008C114.365 61.9922 114.135 62.2578 113.979 62.5977H113.879V61.6367H112.607V68Z" fill="#0F1215"/>
</svg>
