<svg width="200" height="127" viewBox="0 0 200 127" fill="none" xmlns="http://www.w3.org/2000/svg">
<rect x="0.5" y="0.5" width="199" height="126" rx="9.5" fill="#F8F8F8" stroke="#BBC4CD"/>
<g filter="url(#filter0_d_35_575)">
<rect x="26" y="35" width="147" height="57" rx="6" fill="white"/>
<rect x="26.5" y="35.5" width="146" height="56" rx="5.5" stroke="#9FAAB7"/>
</g>
<path d="M36.5312 49.8335H38.5088C38.9248 49.8335 39.2896 49.7471 39.603 49.5742C39.9194 49.3984 40.167 49.1538 40.3457 48.8403C40.5244 48.5239 40.6138 48.1592 40.6138 47.7461V47.7373C40.6138 47.3242 40.5244 46.9624 40.3457 46.6519C40.167 46.3384 39.9194 46.0952 39.603 45.9224C39.2896 45.7466 38.9248 45.6587 38.5088 45.6587H36.5312V46.4893H38.2627C38.6904 46.4893 39.0215 46.5991 39.2559 46.8188C39.4932 47.0386 39.6118 47.3477 39.6118 47.7461V47.7549C39.6118 48.1475 39.4932 48.4551 39.2559 48.6777C39.0215 48.8975 38.6904 49.0073 38.2627 49.0073H36.5312V49.8335ZM36.0391 52H37.0234V45.6587H36.0391V52ZM41.8179 52H42.7715V45.3555H41.8179V52ZM46.1948 52.0923C46.5024 52.0923 46.7734 52.0527 47.0078 51.9736C47.2451 51.8945 47.4473 51.7905 47.6143 51.6616C47.7842 51.5327 47.9204 51.3906 48.0229 51.2354C48.1255 51.0771 48.1973 50.9189 48.2383 50.7607L48.2471 50.7212H47.3242L47.3066 50.7563C47.2715 50.8384 47.2056 50.9219 47.1089 51.0068C47.0151 51.0918 46.8936 51.1636 46.7441 51.2222C46.5977 51.2778 46.4219 51.3057 46.2168 51.3057C45.9502 51.3057 45.7188 51.2471 45.5225 51.1299C45.3291 51.0127 45.1797 50.8428 45.0742 50.6201C44.9688 50.3975 44.916 50.1294 44.916 49.8159V49.4336C44.916 49.1055 44.9688 48.8286 45.0742 48.603C45.1826 48.3774 45.3291 48.2075 45.5137 48.0933C45.7012 47.9761 45.9136 47.9175 46.1509 47.9175C46.3882 47.9175 46.5977 47.9731 46.7793 48.0845C46.9609 48.1958 47.103 48.3643 47.2056 48.5898C47.311 48.8125 47.3638 49.0938 47.3638 49.4336V49.8159L47.8208 49.1831H44.437V49.8643H48.2954V49.5303C48.2954 49.0498 48.209 48.6309 48.0361 48.2734C47.8633 47.9131 47.6157 47.6333 47.2935 47.4341C46.9741 47.2349 46.5918 47.1353 46.1465 47.1353C45.7041 47.1353 45.3174 47.2393 44.9863 47.4473C44.6582 47.6553 44.4033 47.9453 44.2217 48.3174C44.043 48.6895 43.9536 49.1245 43.9536 49.6226V49.627C43.9536 50.1309 44.043 50.5674 44.2217 50.9365C44.4033 51.3057 44.6611 51.5913 44.9951 51.7935C45.3291 51.9927 45.729 52.0923 46.1948 52.0923ZM50.7388 52.0791C50.9497 52.0791 51.1445 52.0498 51.3232 51.9912C51.502 51.9326 51.6616 51.8477 51.8022 51.7363C51.9429 51.6221 52.0601 51.4844 52.1538 51.3232H52.2241V52H53.1733V48.7349C53.1733 48.4009 53.1001 48.1152 52.9536 47.8779C52.8101 47.6377 52.5977 47.4546 52.3164 47.3286C52.0381 47.1997 51.6982 47.1353 51.2969 47.1353C50.9365 47.1353 50.6157 47.1895 50.3345 47.2979C50.0562 47.4062 49.8306 47.5586 49.6577 47.7549C49.4878 47.9482 49.3838 48.1768 49.3457 48.4404L49.3413 48.4712H50.2598L50.2686 48.458C50.3242 48.2881 50.4355 48.1562 50.6025 48.0625C50.7725 47.9688 50.9907 47.9219 51.2573 47.9219C51.5767 47.9219 51.8169 47.9922 51.978 48.1328C52.1421 48.2705 52.2241 48.4712 52.2241 48.7349V50.2378C52.2241 50.4429 52.1714 50.6274 52.0659 50.7915C51.9604 50.9526 51.814 51.0815 51.6265 51.1782C51.4419 51.272 51.231 51.3188 50.9937 51.3188C50.7388 51.3188 50.5278 51.2573 50.3608 51.1343C50.1938 51.0083 50.1104 50.8369 50.1104 50.6201V50.6113C50.1104 50.3975 50.188 50.2319 50.3433 50.1147C50.4985 49.9946 50.7402 49.9243 51.0684 49.9038L52.6987 49.7983V49.126L50.9365 49.2314C50.5586 49.2549 50.2363 49.3252 49.9697 49.4424C49.7061 49.5566 49.5039 49.7148 49.3633 49.917C49.2256 50.1191 49.1567 50.3638 49.1567 50.6509V50.6597C49.1567 50.9468 49.2256 51.1973 49.3633 51.4111C49.501 51.625 49.6885 51.7905 49.9258 51.9077C50.166 52.022 50.437 52.0791 50.7388 52.0791ZM56.2539 52.0923C56.6348 52.0923 56.9731 52.0308 57.269 51.9077C57.5679 51.7817 57.8037 51.6074 57.9766 51.3848C58.1494 51.1592 58.2358 50.8999 58.2358 50.6069V50.5981C58.2358 50.2524 58.123 49.9771 57.8975 49.772C57.6748 49.5669 57.335 49.4102 56.8779 49.3018L56.1177 49.1304C55.9419 49.0864 55.7983 49.0366 55.687 48.981C55.5757 48.9224 55.4937 48.8564 55.4409 48.7832C55.3911 48.707 55.3662 48.6191 55.3662 48.5195V48.5107C55.3662 48.3818 55.4043 48.2705 55.4805 48.1768C55.5596 48.0801 55.6665 48.0054 55.8013 47.9526C55.936 47.897 56.0898 47.8691 56.2627 47.8691C56.5322 47.8691 56.749 47.9248 56.9131 48.0361C57.0801 48.1475 57.1855 48.2866 57.2295 48.4536V48.4624H58.1436V48.458C58.1143 48.1973 58.0205 47.9688 57.8623 47.7725C57.7041 47.5732 57.4888 47.418 57.2163 47.3066C56.9468 47.1924 56.6304 47.1353 56.2671 47.1353C55.9067 47.1353 55.5859 47.1968 55.3047 47.3198C55.0264 47.4399 54.8081 47.6084 54.6499 47.8252C54.4917 48.0391 54.4126 48.2852 54.4126 48.5635V48.5679C54.4126 48.7993 54.4595 49.0015 54.5532 49.1743C54.647 49.3442 54.792 49.4878 54.9883 49.605C55.1846 49.7222 55.4321 49.8145 55.731 49.8818L56.4956 50.0576C56.771 50.1221 56.9688 50.2056 57.0889 50.3081C57.209 50.4106 57.269 50.5366 57.269 50.686V50.6948C57.269 50.8237 57.2266 50.938 57.1416 51.0376C57.0566 51.1372 56.9395 51.2148 56.79 51.2705C56.6436 51.3262 56.4722 51.354 56.2759 51.354C55.9917 51.354 55.7632 51.2983 55.5903 51.187C55.4175 51.0757 55.3003 50.9307 55.2388 50.752V50.7432H54.2808V50.752C54.3101 51.0186 54.4082 51.2529 54.5752 51.4551C54.7422 51.6543 54.9678 51.811 55.252 51.9253C55.5361 52.0366 55.8701 52.0923 56.2539 52.0923ZM61.3735 52.0923C61.6812 52.0923 61.9521 52.0527 62.1865 51.9736C62.4238 51.8945 62.626 51.7905 62.793 51.6616C62.9629 51.5327 63.0991 51.3906 63.2017 51.2354C63.3042 51.0771 63.376 50.9189 63.417 50.7607L63.4258 50.7212H62.5029L62.4854 50.7563C62.4502 50.8384 62.3843 50.9219 62.2876 51.0068C62.1938 51.0918 62.0723 51.1636 61.9229 51.2222C61.7764 51.2778 61.6006 51.3057 61.3955 51.3057C61.1289 51.3057 60.8975 51.2471 60.7012 51.1299C60.5078 51.0127 60.3584 50.8428 60.2529 50.6201C60.1475 50.3975 60.0947 50.1294 60.0947 49.8159V49.4336C60.0947 49.1055 60.1475 48.8286 60.2529 48.603C60.3613 48.3774 60.5078 48.2075 60.6924 48.0933C60.8799 47.9761 61.0923 47.9175 61.3296 47.9175C61.5669 47.9175 61.7764 47.9731 61.958 48.0845C62.1396 48.1958 62.2817 48.3643 62.3843 48.5898C62.4897 48.8125 62.5425 49.0938 62.5425 49.4336V49.8159L62.9995 49.1831H59.6157V49.8643H63.4741V49.5303C63.4741 49.0498 63.3877 48.6309 63.2148 48.2734C63.042 47.9131 62.7944 47.6333 62.4722 47.4341C62.1528 47.2349 61.7705 47.1353 61.3252 47.1353C60.8828 47.1353 60.4961 47.2393 60.165 47.4473C59.8369 47.6553 59.582 47.9453 59.4004 48.3174C59.2217 48.6895 59.1323 49.1245 59.1323 49.6226V49.627C59.1323 50.1309 59.2217 50.5674 59.4004 50.9365C59.582 51.3057 59.8398 51.5913 60.1738 51.7935C60.5078 51.9927 60.9077 52.0923 61.3735 52.0923ZM69.064 52.0923C69.3716 52.0923 69.6426 52.0527 69.877 51.9736C70.1143 51.8945 70.3164 51.7905 70.4834 51.6616C70.6533 51.5327 70.7896 51.3906 70.8921 51.2354C70.9946 51.0771 71.0664 50.9189 71.1074 50.7607L71.1162 50.7212H70.1934L70.1758 50.7563C70.1406 50.8384 70.0747 50.9219 69.978 51.0068C69.8843 51.0918 69.7627 51.1636 69.6133 51.2222C69.4668 51.2778 69.291 51.3057 69.0859 51.3057C68.8193 51.3057 68.5879 51.2471 68.3916 51.1299C68.1982 51.0127 68.0488 50.8428 67.9434 50.6201C67.8379 50.3975 67.7852 50.1294 67.7852 49.8159V49.4336C67.7852 49.1055 67.8379 48.8286 67.9434 48.603C68.0518 48.3774 68.1982 48.2075 68.3828 48.0933C68.5703 47.9761 68.7827 47.9175 69.02 47.9175C69.2573 47.9175 69.4668 47.9731 69.6484 48.0845C69.8301 48.1958 69.9722 48.3643 70.0747 48.5898C70.1802 48.8125 70.2329 49.0938 70.2329 49.4336V49.8159L70.6899 49.1831H67.3062V49.8643H71.1646V49.5303C71.1646 49.0498 71.0781 48.6309 70.9053 48.2734C70.7324 47.9131 70.4849 47.6333 70.1626 47.4341C69.8433 47.2349 69.4609 47.1353 69.0156 47.1353C68.5732 47.1353 68.1865 47.2393 67.8555 47.4473C67.5273 47.6553 67.2725 47.9453 67.0908 48.3174C66.9121 48.6895 66.8228 49.1245 66.8228 49.6226V49.627C66.8228 50.1309 66.9121 50.5674 67.0908 50.9365C67.2725 51.3057 67.5303 51.5913 67.8643 51.7935C68.1982 51.9927 68.5981 52.0923 69.064 52.0923ZM72.2983 52H73.252V49.2007C73.252 48.9429 73.2974 48.7217 73.3882 48.5371C73.4819 48.3496 73.6138 48.2061 73.7837 48.1064C73.9536 48.0039 74.1543 47.9526 74.3857 47.9526C74.7373 47.9526 74.9951 48.0508 75.1592 48.2471C75.3262 48.4404 75.4097 48.7363 75.4097 49.1348V52H76.3677V48.9106C76.3677 48.3423 76.2256 47.9043 75.9414 47.5967C75.6572 47.2891 75.2471 47.1353 74.7109 47.1353C74.3623 47.1353 74.0737 47.207 73.8452 47.3506C73.6167 47.4941 73.4438 47.6934 73.3267 47.9482H73.252V47.2275H72.2983V52ZM79.4966 52.0308C79.5903 52.0308 79.6812 52.0249 79.769 52.0132C79.8569 52.0044 79.939 51.9941 80.0151 51.9824V51.2178C79.9478 51.2236 79.8877 51.228 79.835 51.231C79.7852 51.2339 79.7251 51.2354 79.6548 51.2354C79.4175 51.2354 79.2476 51.1797 79.145 51.0684C79.0425 50.9541 78.9912 50.7681 78.9912 50.5103V47.979H80.0151V47.2275H78.9912V46.0234H78.0156V47.2275H77.2686V47.979H78.0156V50.7432C78.0156 51.2002 78.1313 51.5298 78.3628 51.7319C78.5972 51.9312 78.9751 52.0308 79.4966 52.0308ZM83.0825 52.0923C83.3901 52.0923 83.6611 52.0527 83.8955 51.9736C84.1328 51.8945 84.335 51.7905 84.502 51.6616C84.6719 51.5327 84.8081 51.3906 84.9106 51.2354C85.0132 51.0771 85.085 50.9189 85.126 50.7607L85.1348 50.7212H84.2119L84.1943 50.7563C84.1592 50.8384 84.0933 50.9219 83.9966 51.0068C83.9028 51.0918 83.7812 51.1636 83.6318 51.2222C83.4854 51.2778 83.3096 51.3057 83.1045 51.3057C82.8379 51.3057 82.6064 51.2471 82.4102 51.1299C82.2168 51.0127 82.0674 50.8428 81.9619 50.6201C81.8564 50.3975 81.8037 50.1294 81.8037 49.8159V49.4336C81.8037 49.1055 81.8564 48.8286 81.9619 48.603C82.0703 48.3774 82.2168 48.2075 82.4014 48.0933C82.5889 47.9761 82.8013 47.9175 83.0386 47.9175C83.2759 47.9175 83.4854 47.9731 83.667 48.0845C83.8486 48.1958 83.9907 48.3643 84.0933 48.5898C84.1987 48.8125 84.2515 49.0938 84.2515 49.4336V49.8159L84.7085 49.1831H81.3247V49.8643H85.1831V49.5303C85.1831 49.0498 85.0967 48.6309 84.9238 48.2734C84.751 47.9131 84.5034 47.6333 84.1812 47.4341C83.8618 47.2349 83.4795 47.1353 83.0342 47.1353C82.5918 47.1353 82.2051 47.2393 81.874 47.4473C81.5459 47.6553 81.291 47.9453 81.1094 48.3174C80.9307 48.6895 80.8413 49.1245 80.8413 49.6226V49.627C80.8413 50.1309 80.9307 50.5674 81.1094 50.9365C81.291 51.3057 81.5488 51.5913 81.8828 51.7935C82.2168 51.9927 82.6167 52.0923 83.0825 52.0923ZM86.3169 52H87.2705V49.1479C87.2705 48.9165 87.3218 48.7173 87.4243 48.5503C87.5298 48.3804 87.6733 48.2485 87.855 48.1548C88.0396 48.061 88.2534 48.0142 88.4966 48.0142C88.5874 48.0142 88.6738 48.0186 88.7559 48.0273C88.8408 48.0361 88.9258 48.0493 89.0107 48.0669V47.188C88.9639 47.1763 88.9023 47.166 88.8262 47.1572C88.75 47.1484 88.6724 47.144 88.5933 47.144C88.2769 47.144 88.0103 47.2144 87.7935 47.355C87.5796 47.4956 87.4302 47.6934 87.3452 47.9482H87.2705V47.2275H86.3169V52ZM94.1216 52.0791C94.3442 52.0791 94.5493 52.0469 94.7368 51.9824C94.9243 51.915 95.0898 51.8198 95.2334 51.6968C95.377 51.5708 95.4956 51.4214 95.5894 51.2485H95.6597V52H96.6177V45.3555H95.6597V47.9834H95.5894C95.5044 47.8105 95.3887 47.6626 95.2422 47.5396C95.0957 47.4136 94.9272 47.3169 94.7368 47.2495C94.5464 47.1792 94.3413 47.144 94.1216 47.144C93.7173 47.144 93.3672 47.2451 93.0713 47.4473C92.7754 47.6465 92.5469 47.9307 92.3857 48.2998C92.2246 48.6689 92.144 49.1055 92.144 49.6094V49.6182C92.144 50.1191 92.2246 50.5542 92.3857 50.9233C92.5498 51.2925 92.7798 51.5781 93.0757 51.7803C93.3745 51.9795 93.7231 52.0791 94.1216 52.0791ZM94.394 51.2617C94.1304 51.2617 93.9019 51.1958 93.7085 51.064C93.5181 50.9321 93.3716 50.7432 93.269 50.4971C93.1694 50.251 93.1196 49.958 93.1196 49.6182V49.6094C93.1196 49.2666 93.1694 48.9736 93.269 48.7305C93.3716 48.4844 93.5181 48.2954 93.7085 48.1636C93.9019 48.0288 94.1304 47.9614 94.394 47.9614C94.6577 47.9614 94.8848 48.0288 95.0752 48.1636C95.2686 48.2954 95.4165 48.4844 95.519 48.7305C95.6245 48.9766 95.6772 49.2695 95.6772 49.6094V49.6182C95.6772 49.9551 95.626 50.248 95.5234 50.4971C95.4209 50.7432 95.2729 50.9321 95.0796 51.064C94.8862 51.1958 94.6577 51.2617 94.394 51.2617ZM100.037 52.0923C100.344 52.0923 100.615 52.0527 100.85 51.9736C101.087 51.8945 101.289 51.7905 101.456 51.6616C101.626 51.5327 101.762 51.3906 101.865 51.2354C101.967 51.0771 102.039 50.9189 102.08 50.7607L102.089 50.7212H101.166L101.148 50.7563C101.113 50.8384 101.047 50.9219 100.951 51.0068C100.857 51.0918 100.735 51.1636 100.586 51.2222C100.439 51.2778 100.264 51.3057 100.059 51.3057C99.792 51.3057 99.5605 51.2471 99.3643 51.1299C99.1709 51.0127 99.0215 50.8428 98.916 50.6201C98.8105 50.3975 98.7578 50.1294 98.7578 49.8159V49.4336C98.7578 49.1055 98.8105 48.8286 98.916 48.603C99.0244 48.3774 99.1709 48.2075 99.3555 48.0933C99.543 47.9761 99.7554 47.9175 99.9927 47.9175C100.23 47.9175 100.439 47.9731 100.621 48.0845C100.803 48.1958 100.945 48.3643 101.047 48.5898C101.153 48.8125 101.206 49.0938 101.206 49.4336V49.8159L101.663 49.1831H98.2788V49.8643H102.137V49.5303C102.137 49.0498 102.051 48.6309 101.878 48.2734C101.705 47.9131 101.458 47.6333 101.135 47.4341C100.816 47.2349 100.434 47.1353 99.9883 47.1353C99.5459 47.1353 99.1592 47.2393 98.8281 47.4473C98.5 47.6553 98.2451 47.9453 98.0635 48.3174C97.8848 48.6895 97.7954 49.1245 97.7954 49.6226V49.627C97.7954 50.1309 97.8848 50.5674 98.0635 50.9365C98.2451 51.3057 98.5029 51.5913 98.8369 51.7935C99.1709 51.9927 99.5708 52.0923 100.037 52.0923ZM105.007 52.0923C105.388 52.0923 105.726 52.0308 106.022 51.9077C106.321 51.7817 106.557 51.6074 106.729 51.3848C106.902 51.1592 106.989 50.8999 106.989 50.6069V50.5981C106.989 50.2524 106.876 49.9771 106.65 49.772C106.428 49.5669 106.088 49.4102 105.631 49.3018L104.871 49.1304C104.695 49.0864 104.551 49.0366 104.44 48.981C104.329 48.9224 104.247 48.8564 104.194 48.7832C104.144 48.707 104.119 48.6191 104.119 48.5195V48.5107C104.119 48.3818 104.157 48.2705 104.233 48.1768C104.312 48.0801 104.419 48.0054 104.554 47.9526C104.689 47.897 104.843 47.8691 105.016 47.8691C105.285 47.8691 105.502 47.9248 105.666 48.0361C105.833 48.1475 105.938 48.2866 105.982 48.4536V48.4624H106.896V48.458C106.867 48.1973 106.773 47.9688 106.615 47.7725C106.457 47.5732 106.242 47.418 105.969 47.3066C105.7 47.1924 105.383 47.1353 105.02 47.1353C104.66 47.1353 104.339 47.1968 104.058 47.3198C103.779 47.4399 103.561 47.6084 103.403 47.8252C103.245 48.0391 103.166 48.2852 103.166 48.5635V48.5679C103.166 48.7993 103.212 49.0015 103.306 49.1743C103.4 49.3442 103.545 49.4878 103.741 49.605C103.938 49.7222 104.185 49.8145 104.484 49.8818L105.249 50.0576C105.524 50.1221 105.722 50.2056 105.842 50.3081C105.962 50.4106 106.022 50.5366 106.022 50.686V50.6948C106.022 50.8237 105.979 50.938 105.895 51.0376C105.81 51.1372 105.692 51.2148 105.543 51.2705C105.396 51.3262 105.225 51.354 105.029 51.354C104.745 51.354 104.516 51.2983 104.343 51.187C104.17 51.0757 104.053 50.9307 103.992 50.752V50.7432H103.034V50.752C103.063 51.0186 103.161 51.2529 103.328 51.4551C103.495 51.6543 103.721 51.811 104.005 51.9253C104.289 52.0366 104.623 52.0923 105.007 52.0923ZM110.131 52.0923C110.526 52.0923 110.865 52.0264 111.146 51.8945C111.43 51.7598 111.657 51.5752 111.827 51.3408C111.997 51.1064 112.11 50.834 112.166 50.5234L112.174 50.4839L111.26 50.4883L111.251 50.5103C111.175 50.7681 111.043 50.9629 110.856 51.0947C110.671 51.2266 110.43 51.2925 110.131 51.2925C109.87 51.2925 109.645 51.2251 109.454 51.0903C109.264 50.9526 109.117 50.7578 109.015 50.5059C108.912 50.2539 108.861 49.9521 108.861 49.6006V49.5918C108.861 49.249 108.911 48.9531 109.01 48.7041C109.113 48.4551 109.259 48.2646 109.45 48.1328C109.64 47.998 109.867 47.9307 110.131 47.9307C110.447 47.9307 110.701 48.0098 110.891 48.168C111.082 48.3232 111.203 48.5181 111.256 48.7524L111.26 48.7612H112.179L112.174 48.7393C112.13 48.4316 112.022 48.1577 111.849 47.9175C111.679 47.6743 111.449 47.4839 111.159 47.3462C110.872 47.2056 110.528 47.1353 110.126 47.1353C109.664 47.1353 109.264 47.2349 108.927 47.4341C108.593 47.6333 108.335 47.916 108.153 48.2822C107.975 48.6484 107.885 49.085 107.885 49.5918V49.6006C107.885 50.1162 107.976 50.5601 108.158 50.9321C108.339 51.3042 108.597 51.5913 108.931 51.7935C109.268 51.9927 109.668 52.0923 110.131 52.0923ZM113.255 52H114.209V49.1479C114.209 48.9165 114.26 48.7173 114.363 48.5503C114.468 48.3804 114.612 48.2485 114.793 48.1548C114.978 48.061 115.192 48.0142 115.435 48.0142C115.526 48.0142 115.612 48.0186 115.694 48.0273C115.779 48.0361 115.864 48.0493 115.949 48.0669V47.188C115.902 47.1763 115.841 47.166 115.765 47.1572C115.688 47.1484 115.611 47.144 115.532 47.144C115.215 47.144 114.949 47.2144 114.732 47.355C114.518 47.4956 114.369 47.6934 114.284 47.9482H114.209V47.2275H113.255V52ZM116.881 52H117.839V47.2275H116.881V52ZM117.364 46.375C117.528 46.375 117.669 46.3164 117.786 46.1992C117.903 46.082 117.962 45.9414 117.962 45.7773C117.962 45.6133 117.903 45.4741 117.786 45.3599C117.669 45.2427 117.528 45.1841 117.364 45.1841C117.2 45.1841 117.06 45.2427 116.942 45.3599C116.825 45.4741 116.767 45.6133 116.767 45.7773C116.767 45.9414 116.825 46.082 116.942 46.1992C117.06 46.3164 117.2 46.375 117.364 46.375ZM119.223 53.5908H120.177V51.2441H120.251C120.336 51.417 120.452 51.5649 120.599 51.688C120.745 51.811 120.914 51.9077 121.104 51.978C121.294 52.0454 121.5 52.0791 121.719 52.0791C122.124 52.0791 122.474 51.9795 122.77 51.7803C123.065 51.5781 123.294 51.2939 123.455 50.9277C123.616 50.5586 123.697 50.1221 123.697 49.6182V49.6094C123.697 49.1084 123.615 48.6748 123.451 48.3086C123.29 47.9395 123.061 47.6538 122.765 47.4517C122.469 47.2466 122.121 47.144 121.719 47.144C121.497 47.144 121.292 47.1777 121.104 47.2451C120.917 47.3125 120.75 47.4077 120.603 47.5308C120.459 47.6538 120.342 47.8032 120.251 47.979H120.177V47.2275H119.223V53.5908ZM121.447 51.2617C121.183 51.2617 120.955 51.1958 120.761 51.064C120.568 50.9292 120.42 50.7388 120.317 50.4927C120.215 50.2466 120.164 49.9551 120.164 49.6182V49.6094C120.164 49.2666 120.215 48.9736 120.317 48.7305C120.42 48.4844 120.568 48.2954 120.761 48.1636C120.955 48.0288 121.183 47.9614 121.447 47.9614C121.713 47.9614 121.942 48.0273 122.132 48.1592C122.323 48.291 122.468 48.48 122.567 48.7261C122.67 48.9722 122.721 49.2666 122.721 49.6094V49.6182C122.721 49.958 122.67 50.251 122.567 50.4971C122.468 50.7432 122.323 50.9321 122.132 51.064C121.942 51.1958 121.713 51.2617 121.447 51.2617ZM126.641 52.0308C126.735 52.0308 126.826 52.0249 126.914 52.0132C127.001 52.0044 127.083 51.9941 127.16 51.9824V51.2178C127.092 51.2236 127.032 51.228 126.979 51.231C126.93 51.2339 126.87 51.2354 126.799 51.2354C126.562 51.2354 126.392 51.1797 126.29 51.0684C126.187 50.9541 126.136 50.7681 126.136 50.5103V47.979H127.16V47.2275H126.136V46.0234H125.16V47.2275H124.413V47.979H125.16V50.7432C125.16 51.2002 125.276 51.5298 125.507 51.7319C125.742 51.9312 126.12 52.0308 126.641 52.0308ZM128.289 52H129.247V47.2275H128.289V52ZM128.772 46.375C128.937 46.375 129.077 46.3164 129.194 46.1992C129.312 46.082 129.37 45.9414 129.37 45.7773C129.37 45.6133 129.312 45.4741 129.194 45.3599C129.077 45.2427 128.937 45.1841 128.772 45.1841C128.608 45.1841 128.468 45.2427 128.351 45.3599C128.233 45.4741 128.175 45.6133 128.175 45.7773C128.175 45.9414 128.233 46.082 128.351 46.1992C128.468 46.3164 128.608 46.375 128.772 46.375ZM132.653 52.0923C133.122 52.0923 133.523 51.9927 133.857 51.7935C134.194 51.5942 134.453 51.3101 134.635 50.9409C134.819 50.5688 134.912 50.1279 134.912 49.6182V49.6094C134.912 49.0967 134.819 48.6558 134.635 48.2866C134.453 47.9146 134.194 47.6304 133.857 47.4341C133.52 47.2349 133.119 47.1353 132.653 47.1353C132.19 47.1353 131.789 47.2349 131.449 47.4341C131.112 47.6333 130.851 47.9175 130.667 48.2866C130.485 48.6558 130.394 49.0967 130.394 49.6094V49.6182C130.394 50.1279 130.485 50.5688 130.667 50.9409C130.848 51.3101 131.107 51.5942 131.444 51.7935C131.784 51.9927 132.187 52.0923 132.653 52.0923ZM132.653 51.2925C132.38 51.2925 132.149 51.2266 131.958 51.0947C131.768 50.96 131.622 50.7681 131.519 50.519C131.419 50.27 131.37 49.9697 131.37 49.6182V49.6094C131.37 49.2549 131.419 48.9531 131.519 48.7041C131.622 48.4551 131.768 48.2646 131.958 48.1328C132.149 47.998 132.38 47.9307 132.653 47.9307C132.925 47.9307 133.157 47.998 133.347 48.1328C133.538 48.2646 133.683 48.4551 133.782 48.7041C133.882 48.9531 133.932 49.2549 133.932 49.6094V49.6182C133.932 49.9697 133.882 50.27 133.782 50.519C133.683 50.7681 133.538 50.96 133.347 51.0947C133.157 51.2266 132.925 51.2925 132.653 51.2925ZM136.045 52H136.999V49.2007C136.999 48.9429 137.044 48.7217 137.135 48.5371C137.229 48.3496 137.361 48.2061 137.531 48.1064C137.701 48.0039 137.901 47.9526 138.133 47.9526C138.484 47.9526 138.742 48.0508 138.906 48.2471C139.073 48.4404 139.157 48.7363 139.157 49.1348V52H140.115V48.9106C140.115 48.3423 139.973 47.9043 139.688 47.5967C139.404 47.2891 138.994 47.1353 138.458 47.1353C138.109 47.1353 137.821 47.207 137.592 47.3506C137.364 47.4941 137.191 47.6934 137.074 47.9482H136.999V47.2275H136.045V52Z" fill="#BBC4CD"/>
<defs>
<filter id="filter0_d_35_575" x="14" y="27" width="171" height="81" filterUnits="userSpaceOnUse" color-interpolation-filters="sRGB">
<feFlood flood-opacity="0" result="BackgroundImageFix"/>
<feColorMatrix in="SourceAlpha" type="matrix" values="0 0 0 0 0 0 0 0 0 0 0 0 0 0 0 0 0 0 127 0" result="hardAlpha"/>
<feOffset dy="4"/>
<feGaussianBlur stdDeviation="6"/>
<feComposite in2="hardAlpha" operator="out"/>
<feColorMatrix type="matrix" values="0 0 0 0 0 0 0 0 0 0 0 0 0 0 0 0 0 0 0.1 0"/>
<feBlend mode="normal" in2="BackgroundImageFix" result="effect1_dropShadow_35_575"/>
<feBlend mode="normal" in="SourceGraphic" in2="effect1_dropShadow_35_575" result="shape"/>
</filter>
</defs>
</svg>
