<svg width="200" height="127" viewBox="0 0 200 127" fill="none" xmlns="http://www.w3.org/2000/svg">
<rect x="0.5" y="0.5" width="199" height="126" rx="9.5" fill="#252B32" stroke="#3B444F"/>
<rect x="54.5" y="29.5" width="15" height="15" rx="2.5" fill="#677689" stroke="#677689"/>
<rect x="54.5" y="56.5" width="15" height="15" rx="2.5" stroke="#677689"/>
<rect x="54.5" y="83.5" width="15" height="15" rx="2.5" stroke="#677689"/>
<path d="M60.6663 38.667L58.333 36.3337L57.333 37.3337L60.6663 40.667L66.6663 34.667L65.6663 33.667L60.6663 38.667Z" fill="#0F1215"/>
<rect x="79" y="32" width="67" height="3" rx="1" fill="#515D6C"/>
<rect x="79" y="38" width="43" height="3" rx="1" fill="#9FAAB7"/>
<rect x="79" y="59" width="67" height="3" rx="1" fill="#515D6C"/>
<rect x="79" y="65" width="43" height="3" rx="1" fill="#9FAAB7"/>
<rect x="79" y="86" width="67" height="3" rx="1" fill="#515D6C"/>
<rect x="79" y="92" width="43" height="3" rx="1" fill="#9FAAB7"/>
</svg>
