<svg width="200" height="127" viewBox="0 0 200 127" fill="none" xmlns="http://www.w3.org/2000/svg">
<rect x="0.5" y="0.5" width="199" height="126" rx="9.5" fill="#F8F8F8" stroke="#BBC4CD"/>
<path fill-rule="evenodd" clip-rule="evenodd" d="M138 54C132.477 54 128 58.4772 128 64C128 69.5228 132.477 74 138 74C143.523 74 148 69.5228 148 64C148 58.4772 143.523 54 138 54ZM133.761 60.9463C133.605 60.7896 133.605 60.5357 133.761 60.3791L134.377 59.7598C134.532 59.6032 134.785 59.6032 134.941 59.7598L137.943 62.7781L140.944 59.7604C141.1 59.6038 141.353 59.6038 141.509 59.7604L142.125 60.3797C142.28 60.5363 142.28 60.7903 142.125 60.9469L139.123 63.9645L142.125 66.9826C142.281 67.1393 142.281 67.3932 142.125 67.5498L141.509 68.1691C141.353 68.3257 141.101 68.3257 140.945 68.1691L137.943 65.151L134.94 68.1697C134.784 68.3263 134.532 68.3263 134.376 68.1697L133.76 67.5505C133.604 67.3938 133.604 67.1399 133.76 66.9833L136.763 63.9645L133.761 60.9463Z" fill="#677689"/>
<path fill-rule="evenodd" clip-rule="evenodd" d="M100 54C94.4772 54 90 58.4772 90 64C90 69.5228 94.4772 74 100 74C105.523 74 110 69.5228 110 64C110 58.4772 105.523 54 100 54ZM101.027 58.2855C101.248 58.2855 101.427 58.4646 101.427 58.6855V60.4252C101.427 60.6461 101.248 60.8252 101.027 60.8252H98.9703C98.7494 60.8252 98.5703 60.6461 98.5703 60.4252V58.6855C98.5703 58.4646 98.7494 58.2855 98.9703 58.2855H101.027ZM101.027 62.0954C101.248 62.0954 101.427 62.2745 101.427 62.4954V69.3144C101.427 69.5353 101.248 69.7144 101.027 69.7144H98.9703C98.7494 69.7144 98.5703 69.5353 98.5703 69.3144V62.4954C98.5703 62.2745 98.7494 62.0954 98.9703 62.0954H101.027Z" fill="#677689"/>
<path fill-rule="evenodd" clip-rule="evenodd" d="M62 54C56.4772 54 52 58.4772 52 64C52 69.5228 56.4772 74 62 74C67.5228 74 72 69.5228 72 64C72 58.4772 67.5228 54 62 54ZM57.5106 62.9796L60.3678 65.8367L66.4902 59.7143L67.7147 60.9388L60.3678 68.2857L56.2861 64.2041L57.5106 62.9796Z" fill="#677689"/>
</svg>
