<svg width="200" height="127" viewBox="0 0 200 127" fill="none" xmlns="http://www.w3.org/2000/svg">
<rect x="0.5" y="0.5" width="199" height="126" rx="9.5" fill="#252B32" stroke="#3B444F"/>
<mask id="mask0_35_575" style="mask-type:alpha" maskUnits="userSpaceOnUse" x="0" y="0" width="200" height="127">
<rect width="200" height="127" rx="10" fill="url(#paint0_radial_35_575)"/>
</mask>
<g mask="url(#mask0_35_575)">
<path d="M40 22C40 20.3431 41.3431 19 43 19H157C158.657 19 160 20.3431 160 22V125H40V22Z" fill="#0F1215"/>
<rect x="46" y="55" width="42" height="3" rx="1" fill="#515D6C"/>
<rect x="92" y="55" width="26" height="3" rx="1" fill="#515D6C"/>
<rect x="120" y="55" width="33" height="3" rx="1" fill="#515D6C"/>
<rect x="46" y="67" width="36" height="3" rx="1" fill="#515D6C"/>
<rect x="84" y="67" width="34" height="3" rx="1" fill="#515D6C"/>
<rect x="120" y="67" width="33" height="3" rx="1" fill="#515D6C"/>
<rect x="46" y="61" width="26" height="3" rx="1" fill="#515D6C"/>
<rect x="74" y="61" width="79" height="3" rx="1" fill="#515D6C"/>
<rect x="153" y="97.0898" width="42" height="3" rx="1" transform="rotate(-180 153 97.0898)" fill="#515D6C"/>
<rect x="107" y="97.041" width="26" height="3" rx="1" transform="rotate(-180 107 97.041)" fill="#515D6C"/>
<rect x="79" y="97" width="33" height="3" rx="1" transform="rotate(-180 79 97)" fill="#515D6C"/>
<rect x="153.016" y="85.0938" width="36" height="3" rx="1" transform="rotate(-180 153.016 85.0938)" fill="#515D6C"/>
<rect x="115.016" y="85.0459" width="34" height="3" rx="1" transform="rotate(-180 115.016 85.0459)" fill="#515D6C"/>
<rect x="79.0156" y="85" width="33" height="3" rx="1" transform="rotate(-180 79.0156 85)" fill="#515D6C"/>
<rect x="153.008" y="91.0996" width="26" height="3" rx="1" transform="rotate(-180 153.008 91.0996)" fill="#515D6C"/>
<rect x="125.008" y="91.0293" width="79" height="3" rx="1" transform="rotate(-180 125.008 91.0293)" fill="#515D6C"/>
<rect x="153" y="124.09" width="42" height="3" rx="1" transform="rotate(-180 153 124.09)" fill="#515D6C"/>
<rect x="107" y="124.041" width="26" height="3" rx="1" transform="rotate(-180 107 124.041)" fill="#515D6C"/>
<rect x="79" y="124" width="33" height="3" rx="1" transform="rotate(-180 79 124)" fill="#515D6C"/>
<rect x="153.016" y="112.094" width="36" height="3" rx="1" transform="rotate(-180 153.016 112.094)" fill="#515D6C"/>
<rect x="115.016" y="112.046" width="34" height="3" rx="1" transform="rotate(-180 115.016 112.046)" fill="#515D6C"/>
<rect x="79.0156" y="112" width="33" height="3" rx="1" transform="rotate(-180 79.0156 112)" fill="#515D6C"/>
<rect x="153.008" y="118.1" width="26" height="3" rx="1" transform="rotate(-180 153.008 118.1)" fill="#515D6C"/>
<rect x="125.008" y="118.029" width="79" height="3" rx="1" transform="rotate(-180 125.008 118.029)" fill="#515D6C"/>
<path d="M48.2959 32H49.3896V28.8799H53.0029V32H54.1016V24.9541H53.0029V27.9326H49.3896V24.9541H48.2959V32ZM57.9785 32.1025C58.3203 32.1025 58.6214 32.0586 58.8818 31.9707C59.1455 31.8828 59.3701 31.7673 59.5557 31.624C59.7445 31.4808 59.8958 31.3229 60.0098 31.1504C60.1237 30.9746 60.2035 30.7988 60.249 30.623L60.2588 30.5791H59.2334L59.2139 30.6182C59.1748 30.7093 59.1016 30.8021 58.9941 30.8965C58.89 30.9909 58.7549 31.0706 58.5889 31.1357C58.4261 31.1976 58.2308 31.2285 58.0029 31.2285C57.7067 31.2285 57.4495 31.1634 57.2314 31.0332C57.0166 30.903 56.8506 30.7142 56.7334 30.4668C56.6162 30.2194 56.5576 29.9215 56.5576 29.5732V29.1484C56.5576 28.7839 56.6162 28.4762 56.7334 28.2256C56.8538 27.9749 57.0166 27.7861 57.2217 27.6592C57.43 27.529 57.666 27.4639 57.9297 27.4639C58.1934 27.4639 58.4261 27.5257 58.6279 27.6494C58.8298 27.7731 58.9876 27.9603 59.1016 28.2109C59.2188 28.4583 59.2773 28.7708 59.2773 29.1484V29.5732L59.7852 28.8701H56.0254V29.627H60.3125V29.2559C60.3125 28.722 60.2165 28.2565 60.0244 27.8594C59.8324 27.459 59.5573 27.1481 59.1992 26.9268C58.8444 26.7054 58.4196 26.5947 57.9248 26.5947C57.4333 26.5947 57.0036 26.7103 56.6357 26.9414C56.2712 27.1725 55.988 27.4948 55.7861 27.9082C55.5876 28.3216 55.4883 28.805 55.4883 29.3584V29.3633C55.4883 29.9232 55.5876 30.4082 55.7861 30.8184C55.988 31.2285 56.2744 31.5459 56.6455 31.7705C57.0166 31.9919 57.4609 32.1025 57.9785 32.1025ZM63.0273 32.0879C63.2617 32.0879 63.4782 32.0553 63.6768 31.9902C63.8753 31.9251 64.0527 31.8307 64.209 31.707C64.3652 31.5801 64.4954 31.4271 64.5996 31.248H64.6777V32H65.7324V28.3721C65.7324 28.001 65.651 27.6836 65.4883 27.4199C65.3288 27.153 65.0928 26.9495 64.7803 26.8096C64.471 26.6663 64.0934 26.5947 63.6475 26.5947C63.2471 26.5947 62.8906 26.6549 62.5781 26.7754C62.2689 26.8958 62.0182 27.0651 61.8262 27.2832C61.6374 27.498 61.5218 27.752 61.4795 28.0449L61.4746 28.0791H62.4951L62.5049 28.0645C62.5667 27.8757 62.6904 27.7292 62.876 27.625C63.0648 27.5208 63.3073 27.4688 63.6035 27.4688C63.9583 27.4688 64.2253 27.5469 64.4043 27.7031C64.5866 27.8561 64.6777 28.0791 64.6777 28.3721V30.042C64.6777 30.2699 64.6191 30.4749 64.502 30.6572C64.3848 30.8363 64.222 30.9795 64.0137 31.0869C63.8086 31.1911 63.5742 31.2432 63.3105 31.2432C63.0273 31.2432 62.793 31.1748 62.6074 31.0381C62.4219 30.8981 62.3291 30.7077 62.3291 30.4668V30.457C62.3291 30.2194 62.4154 30.0355 62.5879 29.9053C62.7604 29.7718 63.029 29.6937 63.3936 29.6709L65.2051 29.5537V28.8066L63.2471 28.9238C62.8271 28.9499 62.4691 29.028 62.1729 29.1582C61.8799 29.2852 61.6553 29.4609 61.499 29.6855C61.346 29.9102 61.2695 30.182 61.2695 30.501V30.5107C61.2695 30.8298 61.346 31.1081 61.499 31.3457C61.652 31.5833 61.8604 31.7673 62.124 31.8975C62.391 32.0244 62.6921 32.0879 63.0273 32.0879ZM69.1602 32.0879C69.4076 32.0879 69.6354 32.0521 69.8438 31.9805C70.0521 31.9056 70.236 31.7998 70.3955 31.6631C70.555 31.5231 70.6868 31.3571 70.791 31.165H70.8691V32H71.9336V24.6172H70.8691V27.5371H70.791C70.6966 27.3451 70.568 27.1807 70.4053 27.0439C70.2425 26.904 70.0553 26.7965 69.8438 26.7217C69.6322 26.6436 69.4043 26.6045 69.1602 26.6045C68.7109 26.6045 68.3219 26.7168 67.9932 26.9414C67.6644 27.1628 67.4105 27.4785 67.2314 27.8887C67.0524 28.2988 66.9629 28.7839 66.9629 29.3438V29.3535C66.9629 29.9102 67.0524 30.3936 67.2314 30.8037C67.4137 31.2139 67.6693 31.5312 67.998 31.7559C68.3301 31.9772 68.7174 32.0879 69.1602 32.0879ZM69.4629 31.1797C69.1699 31.1797 68.916 31.1064 68.7012 30.96C68.4896 30.8135 68.3268 30.6035 68.2129 30.3301C68.1022 30.0566 68.0469 29.7311 68.0469 29.3535V29.3438C68.0469 28.9629 68.1022 28.6374 68.2129 28.3672C68.3268 28.0938 68.4896 27.8838 68.7012 27.7373C68.916 27.5876 69.1699 27.5127 69.4629 27.5127C69.7559 27.5127 70.0081 27.5876 70.2197 27.7373C70.4346 27.8838 70.599 28.0938 70.7129 28.3672C70.8301 28.6406 70.8887 28.9661 70.8887 29.3438V29.3535C70.8887 29.7279 70.8317 30.0534 70.7178 30.3301C70.6038 30.6035 70.4395 30.8135 70.2246 30.96C70.0098 31.1064 69.7559 31.1797 69.4629 31.1797ZM73.5205 32H74.585V26.6973H73.5205V32ZM74.0576 25.75C74.2399 25.75 74.3962 25.6849 74.5264 25.5547C74.6566 25.4245 74.7217 25.2682 74.7217 25.0859C74.7217 24.9036 74.6566 24.749 74.5264 24.6221C74.3962 24.4919 74.2399 24.4268 74.0576 24.4268C73.8753 24.4268 73.7191 24.4919 73.5889 24.6221C73.4587 24.749 73.3936 24.9036 73.3936 25.0859C73.3936 25.2682 73.4587 25.4245 73.5889 25.5547C73.7191 25.6849 73.8753 25.75 74.0576 25.75ZM76.123 32H77.1826V28.8896C77.1826 28.6032 77.2331 28.3574 77.334 28.1523C77.4382 27.944 77.5846 27.7845 77.7734 27.6738C77.9622 27.5599 78.1852 27.5029 78.4424 27.5029C78.833 27.5029 79.1195 27.612 79.3018 27.8301C79.4873 28.0449 79.5801 28.3737 79.5801 28.8164V32H80.6445V28.5674C80.6445 27.9359 80.4867 27.4492 80.1709 27.1074C79.8551 26.7656 79.3994 26.5947 78.8037 26.5947C78.4163 26.5947 78.0957 26.6745 77.8418 26.834C77.5879 26.9935 77.3958 27.2148 77.2656 27.498H77.1826V26.6973H76.123V32ZM84.3604 33.8701C84.8649 33.8701 85.3011 33.7887 85.6689 33.626C86.0368 33.4632 86.32 33.2337 86.5186 32.9375C86.7204 32.6413 86.8213 32.293 86.8213 31.8926V26.6973H85.7617V27.5664H85.6982C85.5941 27.3678 85.4622 27.1969 85.3027 27.0537C85.1432 26.9105 84.9593 26.7998 84.751 26.7217C84.5459 26.6436 84.3197 26.6045 84.0723 26.6045C83.6133 26.6045 83.2178 26.7152 82.8857 26.9365C82.5537 27.1546 82.2982 27.459 82.1191 27.8496C81.9401 28.237 81.8506 28.6829 81.8506 29.1875V29.1973C81.8506 29.6953 81.9385 30.1364 82.1143 30.5205C82.2933 30.9014 82.5472 31.2008 82.876 31.4189C83.208 31.6338 83.5986 31.7412 84.0479 31.7412C84.292 31.7412 84.5182 31.707 84.7266 31.6387C84.9349 31.5703 85.1204 31.4694 85.2832 31.3359C85.446 31.1992 85.5794 31.0365 85.6836 30.8477H85.7666V31.8877C85.7666 32.2458 85.6429 32.5241 85.3955 32.7227C85.1514 32.9212 84.8112 33.0205 84.375 33.0205C84.0202 33.0205 83.737 32.9619 83.5254 32.8447C83.3138 32.7275 83.1852 32.5778 83.1396 32.3955L83.1348 32.3857H82.0605L82.0557 32.3955C82.098 32.6885 82.2152 32.9456 82.4072 33.167C82.5993 33.3883 82.8597 33.5609 83.1885 33.6846C83.5205 33.8083 83.9111 33.8701 84.3604 33.8701ZM84.3457 30.8623C84.0462 30.8623 83.7907 30.7923 83.5791 30.6523C83.3708 30.5091 83.2113 30.3122 83.1006 30.0615C82.9899 29.8109 82.9346 29.5212 82.9346 29.1924V29.1826C82.9346 28.8538 82.9899 28.5641 83.1006 28.3135C83.2113 28.0596 83.3708 27.861 83.5791 27.7178C83.7907 27.5745 84.0462 27.5029 84.3457 27.5029C84.6452 27.5029 84.9023 27.5745 85.1172 27.7178C85.332 27.861 85.4964 28.0596 85.6104 28.3135C85.7275 28.5674 85.7861 28.8571 85.7861 29.1826V29.1924C85.7861 29.5212 85.7275 29.8109 85.6104 30.0615C85.4964 30.3122 85.332 30.5091 85.1172 30.6523C84.9023 30.7923 84.6452 30.8623 84.3457 30.8623Z" fill="white"/>
<path d="M49.0942 42.0854C49.3677 42.0854 49.6053 42.0407 49.8071 41.9512C50.009 41.8617 50.1644 41.7355 50.2734 41.5728C50.3841 41.4084 50.4395 41.2139 50.4395 40.9893V40.9868C50.4395 40.8127 50.4036 40.6629 50.332 40.5376C50.262 40.4106 50.1506 40.304 49.9976 40.2178C49.8446 40.1315 49.6452 40.0623 49.3994 40.0103L49.0137 39.9248C48.7874 39.876 48.6239 39.8084 48.5229 39.7222C48.4237 39.6343 48.374 39.5252 48.374 39.395V39.3926C48.374 39.2819 48.4049 39.1875 48.4668 39.1094C48.5303 39.0312 48.6157 38.9718 48.7231 38.9312C48.8306 38.8888 48.9526 38.8677 49.0894 38.8677C49.231 38.866 49.3547 38.8872 49.4604 38.9312C49.5679 38.9735 49.6533 39.0321 49.7168 39.1069C49.7819 39.1818 49.8218 39.2673 49.8364 39.3633L49.8413 39.395H50.376L50.3735 39.3633C50.3605 39.1794 50.2995 39.0142 50.1904 38.8677C50.083 38.7212 49.9357 38.6056 49.7485 38.521C49.563 38.4347 49.3457 38.3916 49.0967 38.3916C48.8477 38.3916 48.6271 38.4347 48.4351 38.521C48.243 38.6073 48.0924 38.7277 47.9834 38.8823C47.876 39.0369 47.8215 39.216 47.8198 39.4194V39.4219C47.8198 39.6823 47.9012 39.8963 48.064 40.064C48.2267 40.23 48.4863 40.3512 48.8428 40.4277L49.2285 40.5083C49.4613 40.5588 49.6289 40.6287 49.7314 40.7183C49.834 40.8078 49.8853 40.9201 49.8853 41.0552V41.0576C49.8853 41.165 49.8519 41.2603 49.7852 41.3433C49.7201 41.4263 49.6297 41.4914 49.5142 41.5386C49.3986 41.5858 49.2668 41.6094 49.1187 41.6094C48.9608 41.6094 48.82 41.5874 48.6963 41.5435C48.5742 41.4995 48.4766 41.4385 48.4033 41.3604C48.3317 41.2822 48.2902 41.1903 48.2788 41.0845L48.2764 41.0576H47.7368L47.7393 41.0894C47.7555 41.2863 47.8206 41.4596 47.9346 41.6094C48.0485 41.7591 48.2039 41.8763 48.4009 41.9609C48.5978 42.0439 48.8289 42.0854 49.0942 42.0854ZM51.9824 42.0513C52.111 42.0513 52.2257 42.0334 52.3267 41.9976C52.4292 41.9618 52.5171 41.9105 52.5903 41.8438C52.6636 41.7754 52.7214 41.694 52.7637 41.5996H52.8027V42H53.335V39.3486H52.8027V40.9038C52.8027 41.0112 52.7889 41.1073 52.7612 41.1919C52.7352 41.2765 52.6945 41.349 52.6392 41.4092C52.5838 41.4694 52.5155 41.5158 52.4341 41.5483C52.3527 41.5793 52.2599 41.5947 52.1558 41.5947C51.9604 41.5947 51.8197 41.5402 51.7334 41.4312C51.6471 41.3221 51.604 41.1585 51.604 40.9404V39.3486H51.0742V41.0649C51.0742 41.2733 51.1076 41.4515 51.1743 41.5996C51.2427 41.7461 51.3444 41.8584 51.4795 41.9365C51.6162 42.013 51.7839 42.0513 51.9824 42.0513ZM55.5078 42.0439C55.7308 42.0439 55.9245 41.9886 56.0889 41.8779C56.2533 41.7656 56.3802 41.6069 56.4697 41.4019C56.5609 41.1968 56.6064 40.9551 56.6064 40.6768V40.6719C56.6064 40.3919 56.5617 40.1494 56.4722 39.9443C56.3826 39.7393 56.2557 39.5814 56.0913 39.4707C55.9269 39.3584 55.7324 39.3022 55.5078 39.3022C55.3857 39.3022 55.2718 39.3218 55.166 39.3608C55.0602 39.3983 54.9666 39.452 54.8853 39.522C54.8039 39.5903 54.7396 39.6725 54.6924 39.7686H54.6509V38.3086H54.1211V42H54.6509V41.5825H54.6924C54.7428 41.6785 54.8079 41.7616 54.8877 41.8315C54.9691 41.8999 55.0618 41.9528 55.166 41.9902C55.2702 42.026 55.3841 42.0439 55.5078 42.0439ZM55.3564 41.5898C55.21 41.5898 55.083 41.5532 54.9756 41.48C54.8682 41.4067 54.786 41.3018 54.729 41.165C54.672 41.0267 54.6436 40.8639 54.6436 40.6768V40.6719C54.6436 40.4831 54.672 40.3203 54.729 40.1836C54.786 40.0469 54.8682 39.9419 54.9756 39.8687C55.083 39.7938 55.21 39.7563 55.3564 39.7563C55.5046 39.7563 55.6315 39.7938 55.7373 39.8687C55.8431 39.9419 55.9237 40.0469 55.979 40.1836C56.036 40.3187 56.0645 40.4814 56.0645 40.6719V40.6768C56.0645 40.8656 56.036 41.0283 55.979 41.165C55.9237 41.3018 55.8431 41.4067 55.7373 41.48C55.6315 41.5532 55.5046 41.5898 55.3564 41.5898ZM58.623 42H59.1528V40.4448C59.1528 40.3016 59.1781 40.1787 59.2285 40.0762C59.2806 39.972 59.3538 39.8923 59.4482 39.8369C59.5426 39.7799 59.6541 39.7515 59.7827 39.7515C59.978 39.7515 60.1213 39.806 60.2124 39.915C60.3052 40.0225 60.3516 40.1868 60.3516 40.4082V42H60.8838V40.2837C60.8838 40.0737 60.848 39.8955 60.7764 39.749C60.7048 39.6009 60.6006 39.4886 60.4639 39.4121C60.3271 39.3356 60.1603 39.2974 59.9634 39.2974C59.7697 39.2974 59.6094 39.3372 59.4824 39.417C59.3555 39.4967 59.2594 39.6074 59.1943 39.749H59.1528V38.3086H58.623V42ZM62.7344 42.0513C62.9053 42.0513 63.0558 42.0293 63.186 41.9854C63.3179 41.9414 63.4302 41.8836 63.5229 41.812C63.6174 41.7404 63.693 41.6615 63.75 41.5752C63.807 41.4873 63.8468 41.3994 63.8696 41.3115L63.8745 41.2896H63.3618L63.3521 41.3091C63.3325 41.3547 63.2959 41.401 63.2422 41.4482C63.1901 41.4954 63.1226 41.5353 63.0396 41.5679C62.9582 41.5988 62.8605 41.6143 62.7466 41.6143C62.5985 41.6143 62.4699 41.5817 62.3608 41.5166C62.2534 41.4515 62.1704 41.3571 62.1118 41.2334C62.0532 41.1097 62.0239 40.9608 62.0239 40.7866V40.5742C62.0239 40.3919 62.0532 40.2381 62.1118 40.1128C62.172 39.9875 62.2534 39.8931 62.356 39.8296C62.4601 39.7645 62.5781 39.7319 62.71 39.7319C62.8418 39.7319 62.9582 39.7629 63.0591 39.8247C63.16 39.8866 63.2389 39.9801 63.2959 40.1055C63.3545 40.2292 63.3838 40.3854 63.3838 40.5742V40.7866L63.6377 40.4351H61.7578V40.8135H63.9014V40.6279C63.9014 40.361 63.8534 40.1283 63.7573 39.9297C63.6613 39.7295 63.5238 39.5741 63.3447 39.4634C63.1673 39.3527 62.9549 39.2974 62.7075 39.2974C62.4618 39.2974 62.2469 39.3551 62.063 39.4707C61.8807 39.5863 61.7391 39.7474 61.6382 39.9541C61.5389 40.1608 61.4893 40.4025 61.4893 40.6792V40.6816C61.4893 40.9616 61.5389 41.2041 61.6382 41.4092C61.7391 41.6143 61.8823 41.7729 62.0679 41.8853C62.2534 41.9959 62.4756 42.0513 62.7344 42.0513ZM65.2588 42.0439C65.376 42.0439 65.4842 42.0277 65.5835 41.9951C65.6828 41.9626 65.7715 41.9154 65.8496 41.8535C65.9277 41.79 65.9928 41.7135 66.0449 41.624H66.084V42H66.6113V40.186C66.6113 40.0005 66.5706 39.8418 66.4893 39.71C66.4095 39.5765 66.2915 39.4748 66.1353 39.4048C65.9806 39.3332 65.7918 39.2974 65.5688 39.2974C65.3687 39.2974 65.1904 39.3275 65.0342 39.3877C64.8796 39.4479 64.7542 39.5326 64.6582 39.6416C64.5638 39.749 64.506 39.876 64.4849 40.0225L64.4824 40.0396H64.9927L64.9976 40.0322C65.0285 39.9378 65.0903 39.8646 65.1831 39.8125C65.2775 39.7604 65.3988 39.7344 65.5469 39.7344C65.7243 39.7344 65.8577 39.7734 65.9473 39.8516C66.0384 39.9281 66.084 40.0396 66.084 40.186V41.021C66.084 41.1349 66.0547 41.2375 65.9961 41.3286C65.9375 41.4181 65.8561 41.4897 65.752 41.5435C65.6494 41.5955 65.5322 41.6216 65.4004 41.6216C65.2588 41.6216 65.1416 41.5874 65.0488 41.519C64.9561 41.4491 64.9097 41.3538 64.9097 41.2334V41.2285C64.9097 41.1097 64.9528 41.0177 65.0391 40.9526C65.1253 40.8859 65.2596 40.8468 65.4419 40.8354L66.3477 40.7769V40.4033L65.3687 40.4619C65.1587 40.4749 64.9797 40.514 64.8315 40.5791C64.6851 40.6426 64.5728 40.7305 64.4946 40.8428C64.4181 40.9551 64.3799 41.091 64.3799 41.2505V41.2554C64.3799 41.4149 64.4181 41.554 64.4946 41.6729C64.5711 41.7917 64.6753 41.8836 64.8071 41.9487C64.9406 42.0122 65.0911 42.0439 65.2588 42.0439ZM68.3252 42.0439C68.4489 42.0439 68.5628 42.026 68.667 41.9902C68.7712 41.9528 68.8631 41.8999 68.9429 41.8315C69.0226 41.7616 69.0885 41.6785 69.1406 41.5825H69.1797V42H69.7119V38.3086H69.1797V39.7686H69.1406C69.0934 39.6725 69.0291 39.5903 68.9478 39.522C68.8664 39.452 68.7728 39.3983 68.667 39.3608C68.5612 39.3218 68.4473 39.3022 68.3252 39.3022C68.1006 39.3022 67.9061 39.3584 67.7417 39.4707C67.5773 39.5814 67.4504 39.7393 67.3608 39.9443C67.2713 40.1494 67.2266 40.3919 67.2266 40.6719V40.6768C67.2266 40.9551 67.2713 41.1968 67.3608 41.4019C67.452 41.6069 67.5798 41.7656 67.7441 41.8779C67.9102 41.9886 68.1038 42.0439 68.3252 42.0439ZM68.4766 41.5898C68.3301 41.5898 68.2031 41.5532 68.0957 41.48C67.9899 41.4067 67.9085 41.3018 67.8516 41.165C67.7962 41.0283 67.7686 40.8656 67.7686 40.6768V40.6719C67.7686 40.4814 67.7962 40.3187 67.8516 40.1836C67.9085 40.0469 67.9899 39.9419 68.0957 39.8687C68.2031 39.7938 68.3301 39.7563 68.4766 39.7563C68.623 39.7563 68.7492 39.7938 68.855 39.8687C68.9624 39.9419 69.0446 40.0469 69.1016 40.1836C69.1602 40.3203 69.1895 40.4831 69.1895 40.6719V40.6768C69.1895 40.8639 69.161 41.0267 69.104 41.165C69.047 41.3018 68.9648 41.4067 68.8574 41.48C68.75 41.5532 68.623 41.5898 68.4766 41.5898ZM70.5054 42H71.0376V39.3486H70.5054V42ZM70.7739 38.875C70.8651 38.875 70.9432 38.8424 71.0083 38.7773C71.0734 38.7122 71.106 38.6341 71.106 38.543C71.106 38.4518 71.0734 38.3745 71.0083 38.311C70.9432 38.2459 70.8651 38.2134 70.7739 38.2134C70.6828 38.2134 70.6047 38.2459 70.5396 38.311C70.4744 38.3745 70.4419 38.4518 70.4419 38.543C70.4419 38.6341 70.4744 38.7122 70.5396 38.7773C70.6047 38.8424 70.6828 38.875 70.7739 38.875ZM71.8066 42H72.3364V40.4448C72.3364 40.3016 72.3617 40.1787 72.4121 40.0762C72.4642 39.972 72.5374 39.8923 72.6318 39.8369C72.7262 39.7799 72.8377 39.7515 72.9663 39.7515C73.1616 39.7515 73.3049 39.806 73.396 39.915C73.4888 40.0225 73.5352 40.1868 73.5352 40.4082V42H74.0674V40.2837C74.0674 39.9679 73.9884 39.7246 73.8306 39.5537C73.6727 39.3828 73.4448 39.2974 73.147 39.2974C72.9533 39.2974 72.793 39.3372 72.666 39.417C72.5391 39.4967 72.443 39.6074 72.3779 39.749H72.3364V39.3486H71.8066V42ZM75.9253 42.9351C76.1776 42.9351 76.3957 42.8944 76.5796 42.813C76.7635 42.7316 76.9051 42.6169 77.0044 42.4688C77.1053 42.3206 77.1558 42.1465 77.1558 41.9463V39.3486H76.626V39.7832H76.5942C76.5422 39.6839 76.4762 39.5985 76.3965 39.5269C76.3167 39.4552 76.2248 39.3999 76.1206 39.3608C76.0181 39.3218 75.9049 39.3022 75.7812 39.3022C75.5518 39.3022 75.354 39.3576 75.188 39.4683C75.022 39.5773 74.8942 39.7295 74.8047 39.9248C74.7152 40.1185 74.6704 40.3415 74.6704 40.5938V40.5986C74.6704 40.8477 74.7144 41.0682 74.8022 41.2603C74.8918 41.4507 75.0187 41.6004 75.1831 41.7095C75.3491 41.8169 75.5444 41.8706 75.769 41.8706C75.8911 41.8706 76.0042 41.8535 76.1084 41.8193C76.2126 41.7852 76.3053 41.7347 76.3867 41.668C76.4681 41.5996 76.5348 41.5182 76.5869 41.4238H76.6284V41.9438C76.6284 42.1229 76.5666 42.262 76.4429 42.3613C76.3208 42.4606 76.1507 42.5103 75.9326 42.5103C75.7552 42.5103 75.6136 42.481 75.5078 42.4224C75.402 42.3638 75.3377 42.2889 75.3149 42.1978L75.3125 42.1929H74.7754L74.7729 42.1978C74.7941 42.3442 74.8527 42.4728 74.9487 42.5835C75.0448 42.6942 75.175 42.7804 75.3394 42.8423C75.5054 42.9041 75.7007 42.9351 75.9253 42.9351ZM75.918 41.4312C75.7682 41.4312 75.6405 41.3962 75.5347 41.3262C75.4305 41.2546 75.3507 41.1561 75.2954 41.0308C75.2401 40.9054 75.2124 40.7606 75.2124 40.5962V40.5913C75.2124 40.4269 75.2401 40.2821 75.2954 40.1567C75.3507 40.0298 75.4305 39.9305 75.5347 39.8589C75.6405 39.7873 75.7682 39.7515 75.918 39.7515C76.0677 39.7515 76.1963 39.7873 76.3037 39.8589C76.4111 39.9305 76.4933 40.0298 76.5503 40.1567C76.6089 40.2837 76.6382 40.4285 76.6382 40.5913V40.5962C76.6382 40.7606 76.6089 40.9054 76.5503 41.0308C76.4933 41.1561 76.4111 41.2546 76.3037 41.3262C76.1963 41.3962 76.0677 41.4312 75.918 41.4312Z" fill="white"/>
</g>
<defs>
<radialGradient id="paint0_radial_35_575" cx="0" cy="0" r="1" gradientUnits="userSpaceOnUse" gradientTransform="translate(100 42) rotate(90) scale(85 133.858)">
<stop stop-color="#D9D9D9"/>
<stop offset="1" stop-color="#D9D9D9" stop-opacity="0.28"/>
</radialGradient>
</defs>
</svg>
