<svg width="200" height="127" viewBox="0 0 200 127" fill="none" xmlns="http://www.w3.org/2000/svg">
<rect x="0.5" y="0.5" width="199" height="126" rx="9.5" fill="#F8F8F8" stroke="#BBC4CD"/>
<mask id="mask0_35_575" style="mask-type:alpha" maskUnits="userSpaceOnUse" x="0" y="0" width="200" height="127">
<rect width="200" height="127" rx="10" fill="url(#paint0_radial_35_575)"/>
</mask>
<g mask="url(#mask0_35_575)">
<path d="M40 22C40 20.3431 41.3431 19 43 19H157C158.657 19 160 20.3431 160 22V125H40V22Z" fill="white"/>
<rect x="46" y="55" width="42" height="3" rx="1" fill="#D9DEE3"/>
<rect x="92" y="55" width="26" height="3" rx="1" fill="#D9DEE3"/>
<rect x="120" y="55" width="33" height="3" rx="1" fill="#D9DEE3"/>
<rect x="46" y="67" width="36" height="3" rx="1" fill="#D9DEE3"/>
<rect x="84" y="67" width="34" height="3" rx="1" fill="#D9DEE3"/>
<rect x="120" y="67" width="33" height="3" rx="1" fill="#D9DEE3"/>
<rect x="46" y="61" width="26" height="3" rx="1" fill="#D9DEE3"/>
<rect x="74" y="61" width="79" height="3" rx="1" fill="#D9DEE3"/>
<rect x="153" y="97.0898" width="42" height="3" rx="1" transform="rotate(-180 153 97.0898)" fill="#D9DEE3"/>
<rect x="107" y="97.041" width="26" height="3" rx="1" transform="rotate(-180 107 97.041)" fill="#D9DEE3"/>
<rect x="79" y="97" width="33" height="3" rx="1" transform="rotate(-180 79 97)" fill="#D9DEE3"/>
<rect x="153.016" y="85.0938" width="36" height="3" rx="1" transform="rotate(-180 153.016 85.0938)" fill="#D9DEE3"/>
<rect x="115.016" y="85.0459" width="34" height="3" rx="1" transform="rotate(-180 115.016 85.0459)" fill="#D9DEE3"/>
<rect x="79.0156" y="85" width="33" height="3" rx="1" transform="rotate(-180 79.0156 85)" fill="#D9DEE3"/>
<rect x="153.008" y="91.0996" width="26" height="3" rx="1" transform="rotate(-180 153.008 91.0996)" fill="#D9DEE3"/>
<rect x="125.008" y="91.0293" width="79" height="3" rx="1" transform="rotate(-180 125.008 91.0293)" fill="#D9DEE3"/>
<rect x="153" y="124.09" width="42" height="3" rx="1" transform="rotate(-180 153 124.09)" fill="#D9DEE3"/>
<rect x="107" y="124.041" width="26" height="3" rx="1" transform="rotate(-180 107 124.041)" fill="#D9DEE3"/>
<rect x="79" y="124" width="33" height="3" rx="1" transform="rotate(-180 79 124)" fill="#D9DEE3"/>
<rect x="153.016" y="112.094" width="36" height="3" rx="1" transform="rotate(-180 153.016 112.094)" fill="#D9DEE3"/>
<rect x="115.016" y="112.046" width="34" height="3" rx="1" transform="rotate(-180 115.016 112.046)" fill="#D9DEE3"/>
<rect x="79.0156" y="112" width="33" height="3" rx="1" transform="rotate(-180 79.0156 112)" fill="#D9DEE3"/>
<rect x="153.008" y="118.1" width="26" height="3" rx="1" transform="rotate(-180 153.008 118.1)" fill="#D9DEE3"/>
<rect x="125.008" y="118.029" width="79" height="3" rx="1" transform="rotate(-180 125.008 118.029)" fill="#D9DEE3"/>
<path d="M48.2959 33H49.3896V29.8799H53.0029V33H54.1016V25.9541H53.0029V28.9326H49.3896V25.9541H48.2959V33ZM57.9785 33.1025C58.3203 33.1025 58.6214 33.0586 58.8818 32.9707C59.1455 32.8828 59.3701 32.7673 59.5557 32.624C59.7445 32.4808 59.8958 32.3229 60.0098 32.1504C60.1237 31.9746 60.2035 31.7988 60.249 31.623L60.2588 31.5791H59.2334L59.2139 31.6182C59.1748 31.7093 59.1016 31.8021 58.9941 31.8965C58.89 31.9909 58.7549 32.0706 58.5889 32.1357C58.4261 32.1976 58.2308 32.2285 58.0029 32.2285C57.7067 32.2285 57.4495 32.1634 57.2314 32.0332C57.0166 31.903 56.8506 31.7142 56.7334 31.4668C56.6162 31.2194 56.5576 30.9215 56.5576 30.5732V30.1484C56.5576 29.7839 56.6162 29.4762 56.7334 29.2256C56.8538 28.9749 57.0166 28.7861 57.2217 28.6592C57.43 28.529 57.666 28.4639 57.9297 28.4639C58.1934 28.4639 58.4261 28.5257 58.6279 28.6494C58.8298 28.7731 58.9876 28.9603 59.1016 29.2109C59.2188 29.4583 59.2773 29.7708 59.2773 30.1484V30.5732L59.7852 29.8701H56.0254V30.627H60.3125V30.2559C60.3125 29.722 60.2165 29.2565 60.0244 28.8594C59.8324 28.459 59.5573 28.1481 59.1992 27.9268C58.8444 27.7054 58.4196 27.5947 57.9248 27.5947C57.4333 27.5947 57.0036 27.7103 56.6357 27.9414C56.2712 28.1725 55.988 28.4948 55.7861 28.9082C55.5876 29.3216 55.4883 29.805 55.4883 30.3584V30.3633C55.4883 30.9232 55.5876 31.4082 55.7861 31.8184C55.988 32.2285 56.2744 32.5459 56.6455 32.7705C57.0166 32.9919 57.4609 33.1025 57.9785 33.1025ZM63.0273 33.0879C63.2617 33.0879 63.4782 33.0553 63.6768 32.9902C63.8753 32.9251 64.0527 32.8307 64.209 32.707C64.3652 32.5801 64.4954 32.4271 64.5996 32.248H64.6777V33H65.7324V29.3721C65.7324 29.001 65.651 28.6836 65.4883 28.4199C65.3288 28.153 65.0928 27.9495 64.7803 27.8096C64.471 27.6663 64.0934 27.5947 63.6475 27.5947C63.2471 27.5947 62.8906 27.6549 62.5781 27.7754C62.2689 27.8958 62.0182 28.0651 61.8262 28.2832C61.6374 28.498 61.5218 28.752 61.4795 29.0449L61.4746 29.0791H62.4951L62.5049 29.0645C62.5667 28.8757 62.6904 28.7292 62.876 28.625C63.0648 28.5208 63.3073 28.4688 63.6035 28.4688C63.9583 28.4688 64.2253 28.5469 64.4043 28.7031C64.5866 28.8561 64.6777 29.0791 64.6777 29.3721V31.042C64.6777 31.2699 64.6191 31.4749 64.502 31.6572C64.3848 31.8363 64.222 31.9795 64.0137 32.0869C63.8086 32.1911 63.5742 32.2432 63.3105 32.2432C63.0273 32.2432 62.793 32.1748 62.6074 32.0381C62.4219 31.8981 62.3291 31.7077 62.3291 31.4668V31.457C62.3291 31.2194 62.4154 31.0355 62.5879 30.9053C62.7604 30.7718 63.029 30.6937 63.3936 30.6709L65.2051 30.5537V29.8066L63.2471 29.9238C62.8271 29.9499 62.4691 30.028 62.1729 30.1582C61.8799 30.2852 61.6553 30.4609 61.499 30.6855C61.346 30.9102 61.2695 31.182 61.2695 31.501V31.5107C61.2695 31.8298 61.346 32.1081 61.499 32.3457C61.652 32.5833 61.8604 32.7673 62.124 32.8975C62.391 33.0244 62.6921 33.0879 63.0273 33.0879ZM69.1602 33.0879C69.4076 33.0879 69.6354 33.0521 69.8438 32.9805C70.0521 32.9056 70.236 32.7998 70.3955 32.6631C70.555 32.5231 70.6868 32.3571 70.791 32.165H70.8691V33H71.9336V25.6172H70.8691V28.5371H70.791C70.6966 28.3451 70.568 28.1807 70.4053 28.0439C70.2425 27.904 70.0553 27.7965 69.8438 27.7217C69.6322 27.6436 69.4043 27.6045 69.1602 27.6045C68.7109 27.6045 68.3219 27.7168 67.9932 27.9414C67.6644 28.1628 67.4105 28.4785 67.2314 28.8887C67.0524 29.2988 66.9629 29.7839 66.9629 30.3438V30.3535C66.9629 30.9102 67.0524 31.3936 67.2314 31.8037C67.4137 32.2139 67.6693 32.5312 67.998 32.7559C68.3301 32.9772 68.7174 33.0879 69.1602 33.0879ZM69.4629 32.1797C69.1699 32.1797 68.916 32.1064 68.7012 31.96C68.4896 31.8135 68.3268 31.6035 68.2129 31.3301C68.1022 31.0566 68.0469 30.7311 68.0469 30.3535V30.3438C68.0469 29.9629 68.1022 29.6374 68.2129 29.3672C68.3268 29.0938 68.4896 28.8838 68.7012 28.7373C68.916 28.5876 69.1699 28.5127 69.4629 28.5127C69.7559 28.5127 70.0081 28.5876 70.2197 28.7373C70.4346 28.8838 70.599 29.0938 70.7129 29.3672C70.8301 29.6406 70.8887 29.9661 70.8887 30.3438V30.3535C70.8887 30.7279 70.8317 31.0534 70.7178 31.3301C70.6038 31.6035 70.4395 31.8135 70.2246 31.96C70.0098 32.1064 69.7559 32.1797 69.4629 32.1797ZM73.5205 33H74.585V27.6973H73.5205V33ZM74.0576 26.75C74.2399 26.75 74.3962 26.6849 74.5264 26.5547C74.6566 26.4245 74.7217 26.2682 74.7217 26.0859C74.7217 25.9036 74.6566 25.749 74.5264 25.6221C74.3962 25.4919 74.2399 25.4268 74.0576 25.4268C73.8753 25.4268 73.7191 25.4919 73.5889 25.6221C73.4587 25.749 73.3936 25.9036 73.3936 26.0859C73.3936 26.2682 73.4587 26.4245 73.5889 26.5547C73.7191 26.6849 73.8753 26.75 74.0576 26.75ZM76.123 33H77.1826V29.8896C77.1826 29.6032 77.2331 29.3574 77.334 29.1523C77.4382 28.944 77.5846 28.7845 77.7734 28.6738C77.9622 28.5599 78.1852 28.5029 78.4424 28.5029C78.833 28.5029 79.1195 28.612 79.3018 28.8301C79.4873 29.0449 79.5801 29.3737 79.5801 29.8164V33H80.6445V29.5674C80.6445 28.9359 80.4867 28.4492 80.1709 28.1074C79.8551 27.7656 79.3994 27.5947 78.8037 27.5947C78.4163 27.5947 78.0957 27.6745 77.8418 27.834C77.5879 27.9935 77.3958 28.2148 77.2656 28.498H77.1826V27.6973H76.123V33ZM84.3604 34.8701C84.8649 34.8701 85.3011 34.7887 85.6689 34.626C86.0368 34.4632 86.32 34.2337 86.5186 33.9375C86.7204 33.6413 86.8213 33.293 86.8213 32.8926V27.6973H85.7617V28.5664H85.6982C85.5941 28.3678 85.4622 28.1969 85.3027 28.0537C85.1432 27.9105 84.9593 27.7998 84.751 27.7217C84.5459 27.6436 84.3197 27.6045 84.0723 27.6045C83.6133 27.6045 83.2178 27.7152 82.8857 27.9365C82.5537 28.1546 82.2982 28.459 82.1191 28.8496C81.9401 29.237 81.8506 29.6829 81.8506 30.1875V30.1973C81.8506 30.6953 81.9385 31.1364 82.1143 31.5205C82.2933 31.9014 82.5472 32.2008 82.876 32.4189C83.208 32.6338 83.5986 32.7412 84.0479 32.7412C84.292 32.7412 84.5182 32.707 84.7266 32.6387C84.9349 32.5703 85.1204 32.4694 85.2832 32.3359C85.446 32.1992 85.5794 32.0365 85.6836 31.8477H85.7666V32.8877C85.7666 33.2458 85.6429 33.5241 85.3955 33.7227C85.1514 33.9212 84.8112 34.0205 84.375 34.0205C84.0202 34.0205 83.737 33.9619 83.5254 33.8447C83.3138 33.7275 83.1852 33.5778 83.1396 33.3955L83.1348 33.3857H82.0605L82.0557 33.3955C82.098 33.6885 82.2152 33.9456 82.4072 34.167C82.5993 34.3883 82.8597 34.5609 83.1885 34.6846C83.5205 34.8083 83.9111 34.8701 84.3604 34.8701ZM84.3457 31.8623C84.0462 31.8623 83.7907 31.7923 83.5791 31.6523C83.3708 31.5091 83.2113 31.3122 83.1006 31.0615C82.9899 30.8109 82.9346 30.5212 82.9346 30.1924V30.1826C82.9346 29.8538 82.9899 29.5641 83.1006 29.3135C83.2113 29.0596 83.3708 28.861 83.5791 28.7178C83.7907 28.5745 84.0462 28.5029 84.3457 28.5029C84.6452 28.5029 84.9023 28.5745 85.1172 28.7178C85.332 28.861 85.4964 29.0596 85.6104 29.3135C85.7275 29.5674 85.7861 29.8571 85.7861 30.1826V30.1924C85.7861 30.5212 85.7275 30.8109 85.6104 31.0615C85.4964 31.3122 85.332 31.5091 85.1172 31.6523C84.9023 31.7923 84.6452 31.8623 84.3457 31.8623Z" fill="#252B32"/>
<path d="M49.0942 43.0854C49.3677 43.0854 49.6053 43.0407 49.8071 42.9512C50.009 42.8617 50.1644 42.7355 50.2734 42.5728C50.3841 42.4084 50.4395 42.2139 50.4395 41.9893V41.9868C50.4395 41.8127 50.4036 41.6629 50.332 41.5376C50.262 41.4106 50.1506 41.304 49.9976 41.2178C49.8446 41.1315 49.6452 41.0623 49.3994 41.0103L49.0137 40.9248C48.7874 40.876 48.6239 40.8084 48.5229 40.7222C48.4237 40.6343 48.374 40.5252 48.374 40.395V40.3926C48.374 40.2819 48.4049 40.1875 48.4668 40.1094C48.5303 40.0312 48.6157 39.9718 48.7231 39.9312C48.8306 39.8888 48.9526 39.8677 49.0894 39.8677C49.231 39.866 49.3547 39.8872 49.4604 39.9312C49.5679 39.9735 49.6533 40.0321 49.7168 40.1069C49.7819 40.1818 49.8218 40.2673 49.8364 40.3633L49.8413 40.395H50.376L50.3735 40.3633C50.3605 40.1794 50.2995 40.0142 50.1904 39.8677C50.083 39.7212 49.9357 39.6056 49.7485 39.521C49.563 39.4347 49.3457 39.3916 49.0967 39.3916C48.8477 39.3916 48.6271 39.4347 48.4351 39.521C48.243 39.6073 48.0924 39.7277 47.9834 39.8823C47.876 40.0369 47.8215 40.216 47.8198 40.4194V40.4219C47.8198 40.6823 47.9012 40.8963 48.064 41.064C48.2267 41.23 48.4863 41.3512 48.8428 41.4277L49.2285 41.5083C49.4613 41.5588 49.6289 41.6287 49.7314 41.7183C49.834 41.8078 49.8853 41.9201 49.8853 42.0552V42.0576C49.8853 42.165 49.8519 42.2603 49.7852 42.3433C49.7201 42.4263 49.6297 42.4914 49.5142 42.5386C49.3986 42.5858 49.2668 42.6094 49.1187 42.6094C48.9608 42.6094 48.82 42.5874 48.6963 42.5435C48.5742 42.4995 48.4766 42.4385 48.4033 42.3604C48.3317 42.2822 48.2902 42.1903 48.2788 42.0845L48.2764 42.0576H47.7368L47.7393 42.0894C47.7555 42.2863 47.8206 42.4596 47.9346 42.6094C48.0485 42.7591 48.2039 42.8763 48.4009 42.9609C48.5978 43.0439 48.8289 43.0854 49.0942 43.0854ZM51.9824 43.0513C52.111 43.0513 52.2257 43.0334 52.3267 42.9976C52.4292 42.9618 52.5171 42.9105 52.5903 42.8438C52.6636 42.7754 52.7214 42.694 52.7637 42.5996H52.8027V43H53.335V40.3486H52.8027V41.9038C52.8027 42.0112 52.7889 42.1073 52.7612 42.1919C52.7352 42.2765 52.6945 42.349 52.6392 42.4092C52.5838 42.4694 52.5155 42.5158 52.4341 42.5483C52.3527 42.5793 52.2599 42.5947 52.1558 42.5947C51.9604 42.5947 51.8197 42.5402 51.7334 42.4312C51.6471 42.3221 51.604 42.1585 51.604 41.9404V40.3486H51.0742V42.0649C51.0742 42.2733 51.1076 42.4515 51.1743 42.5996C51.2427 42.7461 51.3444 42.8584 51.4795 42.9365C51.6162 43.013 51.7839 43.0513 51.9824 43.0513ZM55.5078 43.0439C55.7308 43.0439 55.9245 42.9886 56.0889 42.8779C56.2533 42.7656 56.3802 42.6069 56.4697 42.4019C56.5609 42.1968 56.6064 41.9551 56.6064 41.6768V41.6719C56.6064 41.3919 56.5617 41.1494 56.4722 40.9443C56.3826 40.7393 56.2557 40.5814 56.0913 40.4707C55.9269 40.3584 55.7324 40.3022 55.5078 40.3022C55.3857 40.3022 55.2718 40.3218 55.166 40.3608C55.0602 40.3983 54.9666 40.452 54.8853 40.522C54.8039 40.5903 54.7396 40.6725 54.6924 40.7686H54.6509V39.3086H54.1211V43H54.6509V42.5825H54.6924C54.7428 42.6785 54.8079 42.7616 54.8877 42.8315C54.9691 42.8999 55.0618 42.9528 55.166 42.9902C55.2702 43.026 55.3841 43.0439 55.5078 43.0439ZM55.3564 42.5898C55.21 42.5898 55.083 42.5532 54.9756 42.48C54.8682 42.4067 54.786 42.3018 54.729 42.165C54.672 42.0267 54.6436 41.8639 54.6436 41.6768V41.6719C54.6436 41.4831 54.672 41.3203 54.729 41.1836C54.786 41.0469 54.8682 40.9419 54.9756 40.8687C55.083 40.7938 55.21 40.7563 55.3564 40.7563C55.5046 40.7563 55.6315 40.7938 55.7373 40.8687C55.8431 40.9419 55.9237 41.0469 55.979 41.1836C56.036 41.3187 56.0645 41.4814 56.0645 41.6719V41.6768C56.0645 41.8656 56.036 42.0283 55.979 42.165C55.9237 42.3018 55.8431 42.4067 55.7373 42.48C55.6315 42.5532 55.5046 42.5898 55.3564 42.5898ZM58.623 43H59.1528V41.4448C59.1528 41.3016 59.1781 41.1787 59.2285 41.0762C59.2806 40.972 59.3538 40.8923 59.4482 40.8369C59.5426 40.7799 59.6541 40.7515 59.7827 40.7515C59.978 40.7515 60.1213 40.806 60.2124 40.915C60.3052 41.0225 60.3516 41.1868 60.3516 41.4082V43H60.8838V41.2837C60.8838 41.0737 60.848 40.8955 60.7764 40.749C60.7048 40.6009 60.6006 40.4886 60.4639 40.4121C60.3271 40.3356 60.1603 40.2974 59.9634 40.2974C59.7697 40.2974 59.6094 40.3372 59.4824 40.417C59.3555 40.4967 59.2594 40.6074 59.1943 40.749H59.1528V39.3086H58.623V43ZM62.7344 43.0513C62.9053 43.0513 63.0558 43.0293 63.186 42.9854C63.3179 42.9414 63.4302 42.8836 63.5229 42.812C63.6174 42.7404 63.693 42.6615 63.75 42.5752C63.807 42.4873 63.8468 42.3994 63.8696 42.3115L63.8745 42.2896H63.3618L63.3521 42.3091C63.3325 42.3547 63.2959 42.401 63.2422 42.4482C63.1901 42.4954 63.1226 42.5353 63.0396 42.5679C62.9582 42.5988 62.8605 42.6143 62.7466 42.6143C62.5985 42.6143 62.4699 42.5817 62.3608 42.5166C62.2534 42.4515 62.1704 42.3571 62.1118 42.2334C62.0532 42.1097 62.0239 41.9608 62.0239 41.7866V41.5742C62.0239 41.3919 62.0532 41.2381 62.1118 41.1128C62.172 40.9875 62.2534 40.8931 62.356 40.8296C62.4601 40.7645 62.5781 40.7319 62.71 40.7319C62.8418 40.7319 62.9582 40.7629 63.0591 40.8247C63.16 40.8866 63.2389 40.9801 63.2959 41.1055C63.3545 41.2292 63.3838 41.3854 63.3838 41.5742V41.7866L63.6377 41.4351H61.7578V41.8135H63.9014V41.6279C63.9014 41.361 63.8534 41.1283 63.7573 40.9297C63.6613 40.7295 63.5238 40.5741 63.3447 40.4634C63.1673 40.3527 62.9549 40.2974 62.7075 40.2974C62.4618 40.2974 62.2469 40.3551 62.063 40.4707C61.8807 40.5863 61.7391 40.7474 61.6382 40.9541C61.5389 41.1608 61.4893 41.4025 61.4893 41.6792V41.6816C61.4893 41.9616 61.5389 42.2041 61.6382 42.4092C61.7391 42.6143 61.8823 42.7729 62.0679 42.8853C62.2534 42.9959 62.4756 43.0513 62.7344 43.0513ZM65.2588 43.0439C65.376 43.0439 65.4842 43.0277 65.5835 42.9951C65.6828 42.9626 65.7715 42.9154 65.8496 42.8535C65.9277 42.79 65.9928 42.7135 66.0449 42.624H66.084V43H66.6113V41.186C66.6113 41.0005 66.5706 40.8418 66.4893 40.71C66.4095 40.5765 66.2915 40.4748 66.1353 40.4048C65.9806 40.3332 65.7918 40.2974 65.5688 40.2974C65.3687 40.2974 65.1904 40.3275 65.0342 40.3877C64.8796 40.4479 64.7542 40.5326 64.6582 40.6416C64.5638 40.749 64.506 40.876 64.4849 41.0225L64.4824 41.0396H64.9927L64.9976 41.0322C65.0285 40.9378 65.0903 40.8646 65.1831 40.8125C65.2775 40.7604 65.3988 40.7344 65.5469 40.7344C65.7243 40.7344 65.8577 40.7734 65.9473 40.8516C66.0384 40.9281 66.084 41.0396 66.084 41.186V42.021C66.084 42.1349 66.0547 42.2375 65.9961 42.3286C65.9375 42.4181 65.8561 42.4897 65.752 42.5435C65.6494 42.5955 65.5322 42.6216 65.4004 42.6216C65.2588 42.6216 65.1416 42.5874 65.0488 42.519C64.9561 42.4491 64.9097 42.3538 64.9097 42.2334V42.2285C64.9097 42.1097 64.9528 42.0177 65.0391 41.9526C65.1253 41.8859 65.2596 41.8468 65.4419 41.8354L66.3477 41.7769V41.4033L65.3687 41.4619C65.1587 41.4749 64.9797 41.514 64.8315 41.5791C64.6851 41.6426 64.5728 41.7305 64.4946 41.8428C64.4181 41.9551 64.3799 42.091 64.3799 42.2505V42.2554C64.3799 42.4149 64.4181 42.554 64.4946 42.6729C64.5711 42.7917 64.6753 42.8836 64.8071 42.9487C64.9406 43.0122 65.0911 43.0439 65.2588 43.0439ZM68.3252 43.0439C68.4489 43.0439 68.5628 43.026 68.667 42.9902C68.7712 42.9528 68.8631 42.8999 68.9429 42.8315C69.0226 42.7616 69.0885 42.6785 69.1406 42.5825H69.1797V43H69.7119V39.3086H69.1797V40.7686H69.1406C69.0934 40.6725 69.0291 40.5903 68.9478 40.522C68.8664 40.452 68.7728 40.3983 68.667 40.3608C68.5612 40.3218 68.4473 40.3022 68.3252 40.3022C68.1006 40.3022 67.9061 40.3584 67.7417 40.4707C67.5773 40.5814 67.4504 40.7393 67.3608 40.9443C67.2713 41.1494 67.2266 41.3919 67.2266 41.6719V41.6768C67.2266 41.9551 67.2713 42.1968 67.3608 42.4019C67.452 42.6069 67.5798 42.7656 67.7441 42.8779C67.9102 42.9886 68.1038 43.0439 68.3252 43.0439ZM68.4766 42.5898C68.3301 42.5898 68.2031 42.5532 68.0957 42.48C67.9899 42.4067 67.9085 42.3018 67.8516 42.165C67.7962 42.0283 67.7686 41.8656 67.7686 41.6768V41.6719C67.7686 41.4814 67.7962 41.3187 67.8516 41.1836C67.9085 41.0469 67.9899 40.9419 68.0957 40.8687C68.2031 40.7938 68.3301 40.7563 68.4766 40.7563C68.623 40.7563 68.7492 40.7938 68.855 40.8687C68.9624 40.9419 69.0446 41.0469 69.1016 41.1836C69.1602 41.3203 69.1895 41.4831 69.1895 41.6719V41.6768C69.1895 41.8639 69.161 42.0267 69.104 42.165C69.047 42.3018 68.9648 42.4067 68.8574 42.48C68.75 42.5532 68.623 42.5898 68.4766 42.5898ZM70.5054 43H71.0376V40.3486H70.5054V43ZM70.7739 39.875C70.8651 39.875 70.9432 39.8424 71.0083 39.7773C71.0734 39.7122 71.106 39.6341 71.106 39.543C71.106 39.4518 71.0734 39.3745 71.0083 39.311C70.9432 39.2459 70.8651 39.2134 70.7739 39.2134C70.6828 39.2134 70.6047 39.2459 70.5396 39.311C70.4744 39.3745 70.4419 39.4518 70.4419 39.543C70.4419 39.6341 70.4744 39.7122 70.5396 39.7773C70.6047 39.8424 70.6828 39.875 70.7739 39.875ZM71.8066 43H72.3364V41.4448C72.3364 41.3016 72.3617 41.1787 72.4121 41.0762C72.4642 40.972 72.5374 40.8923 72.6318 40.8369C72.7262 40.7799 72.8377 40.7515 72.9663 40.7515C73.1616 40.7515 73.3049 40.806 73.396 40.915C73.4888 41.0225 73.5352 41.1868 73.5352 41.4082V43H74.0674V41.2837C74.0674 40.9679 73.9884 40.7246 73.8306 40.5537C73.6727 40.3828 73.4448 40.2974 73.147 40.2974C72.9533 40.2974 72.793 40.3372 72.666 40.417C72.5391 40.4967 72.443 40.6074 72.3779 40.749H72.3364V40.3486H71.8066V43ZM75.9253 43.9351C76.1776 43.9351 76.3957 43.8944 76.5796 43.813C76.7635 43.7316 76.9051 43.6169 77.0044 43.4688C77.1053 43.3206 77.1558 43.1465 77.1558 42.9463V40.3486H76.626V40.7832H76.5942C76.5422 40.6839 76.4762 40.5985 76.3965 40.5269C76.3167 40.4552 76.2248 40.3999 76.1206 40.3608C76.0181 40.3218 75.9049 40.3022 75.7812 40.3022C75.5518 40.3022 75.354 40.3576 75.188 40.4683C75.022 40.5773 74.8942 40.7295 74.8047 40.9248C74.7152 41.1185 74.6704 41.3415 74.6704 41.5938V41.5986C74.6704 41.8477 74.7144 42.0682 74.8022 42.2603C74.8918 42.4507 75.0187 42.6004 75.1831 42.7095C75.3491 42.8169 75.5444 42.8706 75.769 42.8706C75.8911 42.8706 76.0042 42.8535 76.1084 42.8193C76.2126 42.7852 76.3053 42.7347 76.3867 42.668C76.4681 42.5996 76.5348 42.5182 76.5869 42.4238H76.6284V42.9438C76.6284 43.1229 76.5666 43.262 76.4429 43.3613C76.3208 43.4606 76.1507 43.5103 75.9326 43.5103C75.7552 43.5103 75.6136 43.481 75.5078 43.4224C75.402 43.3638 75.3377 43.2889 75.3149 43.1978L75.3125 43.1929H74.7754L74.7729 43.1978C74.7941 43.3442 74.8527 43.4728 74.9487 43.5835C75.0448 43.6942 75.175 43.7804 75.3394 43.8423C75.5054 43.9041 75.7007 43.9351 75.9253 43.9351ZM75.918 42.4312C75.7682 42.4312 75.6405 42.3962 75.5347 42.3262C75.4305 42.2546 75.3507 42.1561 75.2954 42.0308C75.2401 41.9054 75.2124 41.7606 75.2124 41.5962V41.5913C75.2124 41.4269 75.2401 41.2821 75.2954 41.1567C75.3507 41.0298 75.4305 40.9305 75.5347 40.8589C75.6405 40.7873 75.7682 40.7515 75.918 40.7515C76.0677 40.7515 76.1963 40.7873 76.3037 40.8589C76.4111 40.9305 76.4933 41.0298 76.5503 41.1567C76.6089 41.2837 76.6382 41.4285 76.6382 41.5913V41.5962C76.6382 41.7606 76.6089 41.9054 76.5503 42.0308C76.4933 42.1561 76.4111 42.2546 76.3037 42.3262C76.1963 42.3962 76.0677 42.4312 75.918 42.4312Z" fill="#252B32"/>
</g>
<defs>
<radialGradient id="paint0_radial_35_575" cx="0" cy="0" r="1" gradientUnits="userSpaceOnUse" gradientTransform="translate(100 31) rotate(90) scale(151.5 238.583)">
<stop stop-color="#D9D9D9"/>
<stop offset="1" stop-color="#D9D9D9" stop-opacity="0.46"/>
</radialGradient>
</defs>
</svg>
