<svg width="40" height="40" viewBox="0 0 40 40" fill="none" xmlns="http://www.w3.org/2000/svg">
<rect width="40" height="40" rx="8" fill="white"/>
<path fill-rule="evenodd" clip-rule="evenodd" d="M11.1992 15.6745V17.8251L26.2721 9.78032C25.5817 9.37312 24.8382 9.04651 24.0543 8.81341L11.1992 15.6745ZM11.1992 21.3815V19.2309L27.4227 10.572C27.9434 10.9866 28.4218 11.452 28.8504 11.9607L11.1992 21.3815ZM11.1992 22.7874V24.9378L30.4728 14.651C30.2336 14.0599 29.9395 13.4968 29.5968 12.9681L11.1992 22.7874ZM11.1992 28.4942V26.3436L30.8699 15.8449C31.0381 16.4833 31.1448 17.1467 31.1832 17.8283L11.1992 28.4942ZM11.1992 29.8175V31.9999H21.1992V28.3999C26.4376 28.3999 30.7353 24.372 31.1641 19.2444L11.2412 29.8777L11.1992 29.8175ZM22.1172 8.44147C21.8149 8.41396 21.5087 8.3999 21.1992 8.3999H18.1656L11.1992 12.118V14.2686L22.1172 8.44147ZM11.1992 8.3999H15.5316L11.1992 10.7122V8.3999Z" fill="#0F1215"/>
</svg>
