<svg width="40" height="40" viewBox="0 0 40 40" fill="none" xmlns="http://www.w3.org/2000/svg">
<rect width="40" height="40" rx="8" fill="#0F1215"/>
<path fill-rule="evenodd" clip-rule="evenodd" d="M11.2002 15.6733V17.8237L26.2719 9.77961C25.5814 9.37249 24.8378 9.04597 24.0538 8.81297L11.2002 15.6733ZM11.2002 21.3808V19.2296L27.4227 10.5712C27.9436 10.9858 28.4222 11.4513 28.851 11.9602L11.2002 21.3808ZM11.2002 22.7867V24.9366L30.4734 14.6501C30.2342 14.0591 29.9401 13.4962 29.5975 12.9676L11.2002 22.7867ZM11.2002 28.4935V26.3425L30.8706 15.8439C31.0389 16.4824 31.1456 17.1459 31.1841 17.8276L11.2002 28.4935ZM11.2002 29.8186V31.9999H21.2002V28.3999C26.4389 28.3999 30.7367 24.3716 31.1651 19.2436L11.2412 29.8774L11.2002 29.8186ZM22.1162 8.44129C21.8145 8.4139 21.509 8.3999 21.2002 8.3999H18.1645L11.2002 12.1169V14.2674L22.1162 8.44129ZM11.2002 8.3999H15.5305L11.2002 10.7111V8.3999Z" fill="white"/>
</svg>
