<svg width="200" height="127" viewBox="0 0 200 127" fill="none" xmlns="http://www.w3.org/2000/svg">
<rect x="0.5" y="0.5" width="199" height="126" rx="9.5" fill="#252B32" stroke="#3B444F"/>
<g filter="url(#filter0_d_35_575)">
<rect x="26" y="50" width="147" height="27" rx="6" fill="#0F1215"/>
<rect x="26.5" y="50.5" width="146" height="26" rx="5.5" stroke="#3B444F"/>
</g>
<path d="M33.6787 64.8335H35.6562C36.0723 64.8335 36.437 64.7471 36.7505 64.5742C37.0669 64.3984 37.3145 64.1538 37.4932 63.8403C37.6719 63.5239 37.7612 63.1592 37.7612 62.7461V62.7373C37.7612 62.3242 37.6719 61.9624 37.4932 61.6519C37.3145 61.3384 37.0669 61.0952 36.7505 60.9224C36.437 60.7466 36.0723 60.6587 35.6562 60.6587H33.6787V61.4893H35.4102C35.8379 61.4893 36.1689 61.5991 36.4033 61.8188C36.6406 62.0386 36.7593 62.3477 36.7593 62.7461V62.7549C36.7593 63.1475 36.6406 63.4551 36.4033 63.6777C36.1689 63.8975 35.8379 64.0073 35.4102 64.0073H33.6787V64.8335ZM33.1865 67H34.1709V60.6587H33.1865V67ZM38.9653 67H39.9189V60.3555H38.9653V67ZM43.3423 67.0923C43.6499 67.0923 43.9209 67.0527 44.1553 66.9736C44.3926 66.8945 44.5947 66.7905 44.7617 66.6616C44.9316 66.5327 45.0679 66.3906 45.1704 66.2354C45.2729 66.0771 45.3447 65.9189 45.3857 65.7607L45.3945 65.7212H44.4717L44.4541 65.7563C44.4189 65.8384 44.353 65.9219 44.2563 66.0068C44.1626 66.0918 44.041 66.1636 43.8916 66.2222C43.7451 66.2778 43.5693 66.3057 43.3643 66.3057C43.0977 66.3057 42.8662 66.2471 42.6699 66.1299C42.4766 66.0127 42.3271 65.8428 42.2217 65.6201C42.1162 65.3975 42.0635 65.1294 42.0635 64.8159V64.4336C42.0635 64.1055 42.1162 63.8286 42.2217 63.603C42.3301 63.3774 42.4766 63.2075 42.6611 63.0933C42.8486 62.9761 43.061 62.9175 43.2983 62.9175C43.5356 62.9175 43.7451 62.9731 43.9268 63.0845C44.1084 63.1958 44.2505 63.3643 44.353 63.5898C44.4585 63.8125 44.5112 64.0938 44.5112 64.4336V64.8159L44.9683 64.1831H41.5845V64.8643H45.4429V64.5303C45.4429 64.0498 45.3564 63.6309 45.1836 63.2734C45.0107 62.9131 44.7632 62.6333 44.4409 62.4341C44.1216 62.2349 43.7393 62.1353 43.2939 62.1353C42.8516 62.1353 42.4648 62.2393 42.1338 62.4473C41.8057 62.6553 41.5508 62.9453 41.3691 63.3174C41.1904 63.6895 41.1011 64.1245 41.1011 64.6226V64.627C41.1011 65.1309 41.1904 65.5674 41.3691 65.9365C41.5508 66.3057 41.8086 66.5913 42.1426 66.7935C42.4766 66.9927 42.8765 67.0923 43.3423 67.0923ZM47.8862 67.0791C48.0972 67.0791 48.292 67.0498 48.4707 66.9912C48.6494 66.9326 48.8091 66.8477 48.9497 66.7363C49.0903 66.6221 49.2075 66.4844 49.3013 66.3232H49.3716V67H50.3208V63.7349C50.3208 63.4009 50.2476 63.1152 50.1011 62.8779C49.9575 62.6377 49.7451 62.4546 49.4639 62.3286C49.1855 62.1997 48.8457 62.1353 48.4443 62.1353C48.084 62.1353 47.7632 62.1895 47.4819 62.2979C47.2036 62.4062 46.978 62.5586 46.8052 62.7549C46.6353 62.9482 46.5312 63.1768 46.4932 63.4404L46.4888 63.4712H47.4072L47.416 63.458C47.4717 63.2881 47.583 63.1562 47.75 63.0625C47.9199 62.9688 48.1382 62.9219 48.4048 62.9219C48.7241 62.9219 48.9644 62.9922 49.1255 63.1328C49.2896 63.2705 49.3716 63.4712 49.3716 63.7349V65.2378C49.3716 65.4429 49.3188 65.6274 49.2134 65.7915C49.1079 65.9526 48.9614 66.0815 48.7739 66.1782C48.5894 66.272 48.3784 66.3188 48.1411 66.3188C47.8862 66.3188 47.6753 66.2573 47.5083 66.1343C47.3413 66.0083 47.2578 65.8369 47.2578 65.6201V65.6113C47.2578 65.3975 47.3354 65.2319 47.4907 65.1147C47.646 64.9946 47.8877 64.9243 48.2158 64.9038L49.8462 64.7983V64.126L48.084 64.2314C47.7061 64.2549 47.3838 64.3252 47.1172 64.4424C46.8535 64.5566 46.6514 64.7148 46.5107 64.917C46.373 65.1191 46.3042 65.3638 46.3042 65.6509V65.6597C46.3042 65.9468 46.373 66.1973 46.5107 66.4111C46.6484 66.625 46.8359 66.7905 47.0732 66.9077C47.3135 67.022 47.5845 67.0791 47.8862 67.0791ZM53.4014 67.0923C53.7822 67.0923 54.1206 67.0308 54.4165 66.9077C54.7153 66.7817 54.9512 66.6074 55.124 66.3848C55.2969 66.1592 55.3833 65.8999 55.3833 65.6069V65.5981C55.3833 65.2524 55.2705 64.9771 55.0449 64.772C54.8223 64.5669 54.4824 64.4102 54.0254 64.3018L53.2651 64.1304C53.0894 64.0864 52.9458 64.0366 52.8345 63.981C52.7231 63.9224 52.6411 63.8564 52.5884 63.7832C52.5386 63.707 52.5137 63.6191 52.5137 63.5195V63.5107C52.5137 63.3818 52.5518 63.2705 52.6279 63.1768C52.707 63.0801 52.814 63.0054 52.9487 62.9526C53.0835 62.897 53.2373 62.8691 53.4102 62.8691C53.6797 62.8691 53.8965 62.9248 54.0605 63.0361C54.2275 63.1475 54.333 63.2866 54.377 63.4536V63.4624H55.291V63.458C55.2617 63.1973 55.168 62.9688 55.0098 62.7725C54.8516 62.5732 54.6362 62.418 54.3638 62.3066C54.0942 62.1924 53.7778 62.1353 53.4146 62.1353C53.0542 62.1353 52.7334 62.1968 52.4521 62.3198C52.1738 62.4399 51.9556 62.6084 51.7974 62.8252C51.6392 63.0391 51.5601 63.2852 51.5601 63.5635V63.5679C51.5601 63.7993 51.6069 64.0015 51.7007 64.1743C51.7944 64.3442 51.9395 64.4878 52.1357 64.605C52.332 64.7222 52.5796 64.8145 52.8784 64.8818L53.6431 65.0576C53.9185 65.1221 54.1162 65.2056 54.2363 65.3081C54.3564 65.4106 54.4165 65.5366 54.4165 65.686V65.6948C54.4165 65.8237 54.374 65.938 54.2891 66.0376C54.2041 66.1372 54.0869 66.2148 53.9375 66.2705C53.791 66.3262 53.6196 66.354 53.4233 66.354C53.1392 66.354 52.9106 66.2983 52.7378 66.187C52.5649 66.0757 52.4478 65.9307 52.3862 65.752V65.7432H51.4282V65.752C51.4575 66.0186 51.5557 66.2529 51.7227 66.4551C51.8896 66.6543 52.1152 66.811 52.3994 66.9253C52.6836 67.0366 53.0176 67.0923 53.4014 67.0923ZM58.521 67.0923C58.8286 67.0923 59.0996 67.0527 59.334 66.9736C59.5713 66.8945 59.7734 66.7905 59.9404 66.6616C60.1104 66.5327 60.2466 66.3906 60.3491 66.2354C60.4517 66.0771 60.5234 65.9189 60.5645 65.7607L60.5732 65.7212H59.6504L59.6328 65.7563C59.5977 65.8384 59.5317 65.9219 59.4351 66.0068C59.3413 66.0918 59.2197 66.1636 59.0703 66.2222C58.9238 66.2778 58.748 66.3057 58.543 66.3057C58.2764 66.3057 58.0449 66.2471 57.8486 66.1299C57.6553 66.0127 57.5059 65.8428 57.4004 65.6201C57.2949 65.3975 57.2422 65.1294 57.2422 64.8159V64.4336C57.2422 64.1055 57.2949 63.8286 57.4004 63.603C57.5088 63.3774 57.6553 63.2075 57.8398 63.0933C58.0273 62.9761 58.2397 62.9175 58.4771 62.9175C58.7144 62.9175 58.9238 62.9731 59.1055 63.0845C59.2871 63.1958 59.4292 63.3643 59.5317 63.5898C59.6372 63.8125 59.6899 64.0938 59.6899 64.4336V64.8159L60.147 64.1831H56.7632V64.8643H60.6216V64.5303C60.6216 64.0498 60.5352 63.6309 60.3623 63.2734C60.1895 62.9131 59.9419 62.6333 59.6196 62.4341C59.3003 62.2349 58.918 62.1353 58.4727 62.1353C58.0303 62.1353 57.6436 62.2393 57.3125 62.4473C56.9844 62.6553 56.7295 62.9453 56.5479 63.3174C56.3691 63.6895 56.2798 64.1245 56.2798 64.6226V64.627C56.2798 65.1309 56.3691 65.5674 56.5479 65.9365C56.7295 66.3057 56.9873 66.5913 57.3213 66.7935C57.6553 66.9927 58.0552 67.0923 58.521 67.0923ZM66.2114 67.0923C66.519 67.0923 66.79 67.0527 67.0244 66.9736C67.2617 66.8945 67.4639 66.7905 67.6309 66.6616C67.8008 66.5327 67.937 66.3906 68.0396 66.2354C68.1421 66.0771 68.2139 65.9189 68.2549 65.7607L68.2637 65.7212H67.3408L67.3232 65.7563C67.2881 65.8384 67.2222 65.9219 67.1255 66.0068C67.0317 66.0918 66.9102 66.1636 66.7607 66.2222C66.6143 66.2778 66.4385 66.3057 66.2334 66.3057C65.9668 66.3057 65.7354 66.2471 65.5391 66.1299C65.3457 66.0127 65.1963 65.8428 65.0908 65.6201C64.9854 65.3975 64.9326 65.1294 64.9326 64.8159V64.4336C64.9326 64.1055 64.9854 63.8286 65.0908 63.603C65.1992 63.3774 65.3457 63.2075 65.5303 63.0933C65.7178 62.9761 65.9302 62.9175 66.1675 62.9175C66.4048 62.9175 66.6143 62.9731 66.7959 63.0845C66.9775 63.1958 67.1196 63.3643 67.2222 63.5898C67.3276 63.8125 67.3804 64.0938 67.3804 64.4336V64.8159L67.8374 64.1831H64.4536V64.8643H68.312V64.5303C68.312 64.0498 68.2256 63.6309 68.0527 63.2734C67.8799 62.9131 67.6323 62.6333 67.3101 62.4341C66.9907 62.2349 66.6084 62.1353 66.1631 62.1353C65.7207 62.1353 65.334 62.2393 65.0029 62.4473C64.6748 62.6553 64.4199 62.9453 64.2383 63.3174C64.0596 63.6895 63.9702 64.1245 63.9702 64.6226V64.627C63.9702 65.1309 64.0596 65.5674 64.2383 65.9365C64.4199 66.3057 64.6777 66.5913 65.0117 66.7935C65.3457 66.9927 65.7456 67.0923 66.2114 67.0923ZM69.4458 67H70.3994V64.2007C70.3994 63.9429 70.4448 63.7217 70.5356 63.5371C70.6294 63.3496 70.7612 63.2061 70.9312 63.1064C71.1011 63.0039 71.3018 62.9526 71.5332 62.9526C71.8848 62.9526 72.1426 63.0508 72.3066 63.2471C72.4736 63.4404 72.5571 63.7363 72.5571 64.1348V67H73.5151V63.9106C73.5151 63.3423 73.373 62.9043 73.0889 62.5967C72.8047 62.2891 72.3945 62.1353 71.8584 62.1353C71.5098 62.1353 71.2212 62.207 70.9927 62.3506C70.7642 62.4941 70.5913 62.6934 70.4741 62.9482H70.3994V62.2275H69.4458V67ZM76.644 67.0308C76.7378 67.0308 76.8286 67.0249 76.9165 67.0132C77.0044 67.0044 77.0864 66.9941 77.1626 66.9824V66.2178C77.0952 66.2236 77.0352 66.228 76.9824 66.231C76.9326 66.2339 76.8726 66.2354 76.8022 66.2354C76.5649 66.2354 76.395 66.1797 76.2925 66.0684C76.1899 65.9541 76.1387 65.7681 76.1387 65.5103V62.979H77.1626V62.2275H76.1387V61.0234H75.1631V62.2275H74.416V62.979H75.1631V65.7432C75.1631 66.2002 75.2788 66.5298 75.5103 66.7319C75.7446 66.9312 76.1226 67.0308 76.644 67.0308ZM80.23 67.0923C80.5376 67.0923 80.8086 67.0527 81.043 66.9736C81.2803 66.8945 81.4824 66.7905 81.6494 66.6616C81.8193 66.5327 81.9556 66.3906 82.0581 66.2354C82.1606 66.0771 82.2324 65.9189 82.2734 65.7607L82.2822 65.7212H81.3594L81.3418 65.7563C81.3066 65.8384 81.2407 65.9219 81.144 66.0068C81.0503 66.0918 80.9287 66.1636 80.7793 66.2222C80.6328 66.2778 80.457 66.3057 80.252 66.3057C79.9854 66.3057 79.7539 66.2471 79.5576 66.1299C79.3643 66.0127 79.2148 65.8428 79.1094 65.6201C79.0039 65.3975 78.9512 65.1294 78.9512 64.8159V64.4336C78.9512 64.1055 79.0039 63.8286 79.1094 63.603C79.2178 63.3774 79.3643 63.2075 79.5488 63.0933C79.7363 62.9761 79.9487 62.9175 80.186 62.9175C80.4233 62.9175 80.6328 62.9731 80.8145 63.0845C80.9961 63.1958 81.1382 63.3643 81.2407 63.5898C81.3462 63.8125 81.3989 64.0938 81.3989 64.4336V64.8159L81.856 64.1831H78.4722V64.8643H82.3306V64.5303C82.3306 64.0498 82.2441 63.6309 82.0713 63.2734C81.8984 62.9131 81.6509 62.6333 81.3286 62.4341C81.0093 62.2349 80.627 62.1353 80.1816 62.1353C79.7393 62.1353 79.3525 62.2393 79.0215 62.4473C78.6934 62.6553 78.4385 62.9453 78.2568 63.3174C78.0781 63.6895 77.9888 64.1245 77.9888 64.6226V64.627C77.9888 65.1309 78.0781 65.5674 78.2568 65.9365C78.4385 66.3057 78.6963 66.5913 79.0303 66.7935C79.3643 66.9927 79.7642 67.0923 80.23 67.0923ZM83.4644 67H84.418V64.1479C84.418 63.9165 84.4692 63.7173 84.5718 63.5503C84.6772 63.3804 84.8208 63.2485 85.0024 63.1548C85.187 63.061 85.4009 63.0142 85.644 63.0142C85.7349 63.0142 85.8213 63.0186 85.9033 63.0273C85.9883 63.0361 86.0732 63.0493 86.1582 63.0669V62.188C86.1113 62.1763 86.0498 62.166 85.9736 62.1572C85.8975 62.1484 85.8198 62.144 85.7407 62.144C85.4243 62.144 85.1577 62.2144 84.9409 62.355C84.7271 62.4956 84.5776 62.6934 84.4927 62.9482H84.418V62.2275H83.4644V67ZM89.5288 67H90.4824V64.2007C90.4824 63.9429 90.5278 63.7217 90.6187 63.5371C90.7124 63.3496 90.8442 63.2061 91.0142 63.1064C91.1841 63.0039 91.3848 62.9526 91.6162 62.9526C91.9678 62.9526 92.2256 63.0508 92.3896 63.2471C92.5566 63.4404 92.6401 63.7363 92.6401 64.1348V67H93.5981V63.9106C93.5981 63.3423 93.4561 62.9043 93.1719 62.5967C92.8877 62.2891 92.4775 62.1353 91.9414 62.1353C91.5928 62.1353 91.3042 62.207 91.0757 62.3506C90.8472 62.4941 90.6743 62.6934 90.5571 62.9482H90.4824V62.2275H89.5288V67ZM96.2349 67.0791C96.4458 67.0791 96.6406 67.0498 96.8193 66.9912C96.998 66.9326 97.1577 66.8477 97.2983 66.7363C97.439 66.6221 97.5562 66.4844 97.6499 66.3232H97.7202V67H98.6694V63.7349C98.6694 63.4009 98.5962 63.1152 98.4497 62.8779C98.3062 62.6377 98.0938 62.4546 97.8125 62.3286C97.5342 62.1997 97.1943 62.1353 96.793 62.1353C96.4326 62.1353 96.1118 62.1895 95.8306 62.2979C95.5522 62.4062 95.3267 62.5586 95.1538 62.7549C94.9839 62.9482 94.8799 63.1768 94.8418 63.4404L94.8374 63.4712H95.7559L95.7646 63.458C95.8203 63.2881 95.9316 63.1562 96.0986 63.0625C96.2686 62.9688 96.4868 62.9219 96.7534 62.9219C97.0728 62.9219 97.313 62.9922 97.4741 63.1328C97.6382 63.2705 97.7202 63.4712 97.7202 63.7349V65.2378C97.7202 65.4429 97.6675 65.6274 97.562 65.7915C97.4565 65.9526 97.3101 66.0815 97.1226 66.1782C96.938 66.272 96.7271 66.3188 96.4897 66.3188C96.2349 66.3188 96.0239 66.2573 95.8569 66.1343C95.6899 66.0083 95.6064 65.8369 95.6064 65.6201V65.6113C95.6064 65.3975 95.6841 65.2319 95.8394 65.1147C95.9946 64.9946 96.2363 64.9243 96.5645 64.9038L98.1948 64.7983V64.126L96.4326 64.2314C96.0547 64.2549 95.7324 64.3252 95.4658 64.4424C95.2021 64.5566 95 64.7148 94.8594 64.917C94.7217 65.1191 94.6528 65.3638 94.6528 65.6509V65.6597C94.6528 65.9468 94.7217 66.1973 94.8594 66.4111C94.9971 66.625 95.1846 66.7905 95.4219 66.9077C95.6621 67.022 95.9331 67.0791 96.2349 67.0791ZM100.014 67H100.968V64.0688C100.968 63.8608 101.012 63.6733 101.1 63.5063C101.188 63.3364 101.306 63.2017 101.456 63.1021C101.608 63.0024 101.779 62.9526 101.97 62.9526C102.157 62.9526 102.32 62.9893 102.458 63.0625C102.595 63.1328 102.701 63.2354 102.774 63.3701C102.85 63.502 102.888 63.6587 102.888 63.8403V67H103.842V63.981C103.842 63.7876 103.883 63.6147 103.965 63.4624C104.05 63.3071 104.167 63.1841 104.316 63.0933C104.469 62.9995 104.646 62.9526 104.848 62.9526C105.053 62.9526 105.223 62.9893 105.358 63.0625C105.496 63.1357 105.598 63.2456 105.666 63.3921C105.733 63.5356 105.767 63.7173 105.767 63.937V67H106.72V63.7085C106.72 63.3774 106.66 63.0947 106.54 62.8604C106.42 62.626 106.246 62.4473 106.017 62.3242C105.789 62.1982 105.513 62.1353 105.191 62.1353C104.974 62.1353 104.769 62.1704 104.576 62.2407C104.385 62.311 104.218 62.4106 104.075 62.5396C103.931 62.6655 103.82 62.8149 103.741 62.9878H103.666C103.596 62.8149 103.498 62.6655 103.372 62.5396C103.249 62.4106 103.101 62.311 102.928 62.2407C102.755 62.1704 102.56 62.1353 102.343 62.1353C102.03 62.1353 101.76 62.207 101.535 62.3506C101.312 62.4941 101.148 62.6978 101.042 62.9614H100.968V62.2275H100.014V67ZM110.06 67.0923C110.368 67.0923 110.639 67.0527 110.873 66.9736C111.11 66.8945 111.312 66.7905 111.479 66.6616C111.649 66.5327 111.786 66.3906 111.888 66.2354C111.991 66.0771 112.062 65.9189 112.104 65.7607L112.112 65.7212H111.189L111.172 65.7563C111.137 65.8384 111.071 65.9219 110.974 66.0068C110.88 66.0918 110.759 66.1636 110.609 66.2222C110.463 66.2778 110.287 66.3057 110.082 66.3057C109.815 66.3057 109.584 66.2471 109.388 66.1299C109.194 66.0127 109.045 65.8428 108.939 65.6201C108.834 65.3975 108.781 65.1294 108.781 64.8159V64.4336C108.781 64.1055 108.834 63.8286 108.939 63.603C109.048 63.3774 109.194 63.2075 109.379 63.0933C109.566 62.9761 109.779 62.9175 110.016 62.9175C110.253 62.9175 110.463 62.9731 110.645 63.0845C110.826 63.1958 110.968 63.3643 111.071 63.5898C111.176 63.8125 111.229 64.0938 111.229 64.4336V64.8159L111.686 64.1831H108.302V64.8643H112.161V64.5303C112.161 64.0498 112.074 63.6309 111.901 63.2734C111.729 62.9131 111.481 62.6333 111.159 62.4341C110.839 62.2349 110.457 62.1353 110.012 62.1353C109.569 62.1353 109.183 62.2393 108.852 62.4473C108.523 62.6553 108.269 62.9453 108.087 63.3174C107.908 63.6895 107.819 64.1245 107.819 64.6226V64.627C107.819 65.1309 107.908 65.5674 108.087 65.9365C108.269 66.3057 108.526 66.5913 108.86 66.7935C109.194 66.9927 109.594 67.0923 110.06 67.0923Z" fill="#BBC4CD"/>
<defs>
<filter id="filter0_d_35_575" x="14" y="42" width="171" height="51" filterUnits="userSpaceOnUse" color-interpolation-filters="sRGB">
<feFlood flood-opacity="0" result="BackgroundImageFix"/>
<feColorMatrix in="SourceAlpha" type="matrix" values="0 0 0 0 0 0 0 0 0 0 0 0 0 0 0 0 0 0 127 0" result="hardAlpha"/>
<feOffset dy="4"/>
<feGaussianBlur stdDeviation="6"/>
<feComposite in2="hardAlpha" operator="out"/>
<feColorMatrix type="matrix" values="0 0 0 0 0 0 0 0 0 0 0 0 0 0 0 0 0 0 0.13 0"/>
<feBlend mode="normal" in2="BackgroundImageFix" result="effect1_dropShadow_35_575"/>
<feBlend mode="normal" in="SourceGraphic" in2="effect1_dropShadow_35_575" result="shape"/>
</filter>
</defs>
</svg>
